<svg width="200" height="158" viewBox="0 0 200 158" fill="none" xmlns="http://www.w3.org/2000/svg">
<path d="M0 4C0 1.79086 1.79086 0 4 0H196C198.209 0 200 1.79086 200 4V154C200 156.209 198.209 158 196 158H4C1.79086 158 0 156.209 0 154V4Z" fill="#EE3A43"/>
<path d="M156.39 39.585C153.081 34.8 146.608 29 135.1 29C121.434 29 108.631 42.05 100.144 51.475C92.0882 42.34 80.1485 29 66.4826 29C55.1183 29 48.3573 34.51 44.6172 39.15C40.4455 44.37 38 51.475 38 58C38 64.815 40.3016 71.63 44.3295 76.85C47.7819 81.49 54.2552 87 65.0441 87C79.5731 87 92.232 73.66 100.144 64.525C108.487 73.805 120.715 87 134.812 87C152.506 87 162 72.065 162 58C162 54.81 161.425 46.835 156.39 39.585ZM49.9397 76.705C43.3225 70.035 45.1926 64.815 45.1926 64.815C45.1926 64.815 45.6241 70.18 51.3782 75.69C57.2761 81.2 63.0302 80.91 63.0302 80.91C63.0302 80.91 55.6937 82.65 49.9397 76.705ZM94.3898 58C87.3411 65.975 76.2645 78.3 65.0441 78.3C51.6659 78.3 46.6311 65.83 46.6311 58C46.6311 50.17 52.0974 37.7 66.4826 37.7C76.4084 37.7 86.9095 49.735 93.9582 57.565C94.1021 57.71 94.2459 57.855 94.3898 58ZM134.812 78.3C124.599 78.3 113.234 66.12 105.898 58C113.09 49.88 124.742 37.7 135.1 37.7C153.081 37.7 153.369 57.13 153.369 58C153.369 66.12 148.334 78.3 134.812 78.3ZM150.06 38.57C144.162 33.06 138.408 33.35 138.408 33.35C138.408 33.35 145.026 31.32 151.499 37.555C158.26 44.08 156.246 49.445 156.246 49.445C156.246 49.445 155.814 44.08 150.06 38.57Z" fill="#0D0D0D"/>
</svg>
