<svg width="200" height="158" viewBox="0 0 200 158" fill="none" xmlns="http://www.w3.org/2000/svg">
<g clip-path="url(#clip0_0_19)">
<rect width="200" height="158" fill="url(#paint0_linear_0_19)"/>
<path d="M134.986 234.761C136.581 221.388 140.16 206.05 145.611 189.174C151.307 171.788 158.044 154.86 165.776 138.507C173.823 121.343 182.808 104.76 192.677 88.8538C201.925 73.773 212.197 59.5267 223.401 46.2438C233.672 34.1714 243.422 25.0764 252.252 19.2091C260.761 13.5419 268.096 11.1274 274.046 12.0031C279.996 12.8789 284.239 17.0072 286.688 24.3258C289.214 31.8319 289.69 42.4782 288.095 55.8517C286.499 69.2252 282.921 84.6253 277.469 101.439C271.774 118.827 265.033 135.756 257.293 152.106C249.261 169.276 240.288 185.864 230.425 201.772C221.174 216.85 210.902 231.096 199.702 244.382C189.364 256.454 179.648 265.549 170.828 271.416C162.308 277.084 154.973 279.498 149.035 278.622C143.096 277.747 138.841 273.618 136.393 266.3C133.856 258.794 133.39 248.147 134.986 234.774V234.761ZM134.133 235.762C127.485 291.083 156.824 295.436 199.569 245.47C242.314 195.504 282.333 110.184 288.937 54.8634C295.54 -0.457116 266.257 -4.81068 223.567 45.1554C180.877 95.1215 140.802 180.442 134.188 235.762H134.133Z" stroke="#0D0D0D" stroke-width="2"/>
<path d="M127.584 233.247C130.554 218.573 135.65 201.972 142.741 184.044C150.06 165.671 158.405 147.842 167.726 130.663C177.284 112.896 187.773 95.7892 199.137 79.4334C209.586 64.1923 221.07 49.8916 233.483 36.6607C244.818 24.7885 255.233 16.1439 264.44 10.9771C273.303 5.97299 280.727 4.4092 286.411 6.31076C292.095 8.21233 295.806 13.4917 297.413 21.9987C299.075 30.7559 298.41 42.7157 295.441 57.3778C292.471 72.0398 287.375 88.6535 280.284 106.581C272.965 124.956 264.616 142.786 255.288 159.962C245.733 177.729 235.248 194.836 223.888 211.192C213.414 226.433 201.908 240.733 189.475 253.964C178.141 265.837 167.726 274.481 158.53 279.648C149.666 284.652 142.243 286.216 136.559 284.314C130.875 282.413 127.163 277.133 125.557 268.626C123.895 259.869 124.549 247.909 127.529 233.247H127.584ZM126.598 234.223C114.311 294.886 142.354 304.281 189.231 255.165C236.109 206.05 284.084 117.077 296.371 56.402C308.659 -4.27294 280.616 -13.6556 233.727 35.4597C186.838 84.5751 138.886 173.548 126.598 234.223Z" stroke="#0D0D0D" stroke-width="2"/>
<path d="M120.538 230.395C125.818 212.259 132.491 194.677 140.481 177.852C149.499 158.63 159.529 140.035 170.518 122.169C181.6 103.964 193.613 86.5031 206.494 69.8757C218.166 54.6566 230.876 40.4933 244.508 27.5158C256.795 16.0189 267.841 7.99981 277.337 3.64623C286.522 -0.55723 293.878 -1.15773 299.219 1.84474C304.559 4.84721 307.595 11.3025 308.26 21.0355C308.947 31.1188 307.041 44.2921 302.598 60.1927C297.322 78.3311 290.649 95.9128 282.655 112.736C273.68 131.949 263.69 150.535 252.74 168.394C241.654 186.596 229.642 204.057 216.764 220.687C205.092 235.906 192.382 250.07 178.75 263.047C166.463 274.544 155.417 282.563 145.91 286.917C136.736 291.12 129.379 291.721 124.039 288.718C118.699 285.716 115.663 279.26 114.998 269.527C114.311 259.444 116.217 246.271 120.66 230.37L120.538 230.395ZM119.652 231.308C101.27 297.075 127.573 311.862 178.373 264.361C229.173 216.859 285.17 125.046 303.551 59.292C321.932 -6.46209 295.629 -21.2618 244.829 26.2398C194.029 73.7414 137.9 165.579 119.552 231.333L119.652 231.308Z" stroke="#0D0D0D" stroke-width="2"/>
<path d="M114.012 226.129C120.996 206.898 129.352 188.338 138.997 170.634C160.478 130.836 185.834 93.8756 214.593 60.4431C227.408 45.4194 241.272 31.5843 256.053 19.0715C269.226 8.16258 280.827 0.906619 290.532 -2.47116C299.917 -5.73634 307.152 -5.27346 312.016 -1.09503C316.88 3.08341 319.162 10.7522 318.774 21.7112C318.386 33.058 315.14 47.4574 309.135 64.4964C302.151 83.728 293.795 102.287 284.15 119.992C273.455 139.885 261.754 159.066 249.106 177.439C236.494 195.883 222.955 213.493 208.554 230.183C195.736 245.207 181.867 259.042 167.083 271.554C153.921 282.463 142.32 289.719 132.604 293.097C123.23 296.362 115.984 295.899 111.131 291.721C106.278 287.542 103.985 279.873 104.362 268.914C104.761 257.568 108.007 243.168 114.012 226.129V226.129ZM112.904 227.018C88.0635 297.513 112.084 318.08 166.563 272.955C221.041 227.831 285.336 134.091 310.176 63.6082C335.017 -6.87478 310.996 -27.4542 256.518 17.6704C202.039 62.795 137.745 156.522 112.904 227.018V227.018Z" stroke="#0D0D0D" stroke-width="2"/>
<path d="M108.051 220.349C116.791 200.174 126.881 180.782 138.232 162.339C150.645 141.952 164.061 122.368 178.418 103.678C192.52 85.1967 207.558 67.6529 223.456 51.1351C239.167 34.8717 254.213 21.5357 268.185 11.4024C282.156 1.26906 294.211 -5.02361 304.016 -7.28797C313.489 -9.47727 320.469 -7.85094 324.768 -2.44649C329.067 2.95795 330.474 11.8778 328.945 24.0378C327.35 36.6356 322.674 52.1859 315.018 70.3258C306.287 90.5056 296.197 109.899 284.837 128.336C272.432 148.726 259.019 168.31 244.663 186.997C230.561 205.478 215.523 223.022 199.624 239.54C183.913 255.803 168.867 269.139 154.896 279.273C140.924 289.406 128.87 295.699 119.064 297.963C109.591 300.152 102.611 298.526 98.3122 293.122C94.0133 287.717 92.6062 278.797 94.1351 266.637C95.7195 254.039 100.406 238.489 108.051 220.349V220.349ZM106.943 221.187C75.3109 295.961 96.5173 322.608 154.297 280.711C212.078 238.814 284.538 144.212 316.17 69.4376C347.803 -5.33637 326.596 -31.9833 268.816 9.91367C211.036 51.8106 138.542 146.413 106.91 221.187H106.943Z" stroke="#0D0D0D" stroke-width="2"/>
<path d="M102.932 213.006C113.458 192.04 125.327 171.97 138.442 152.956C152.559 132.293 167.684 112.533 183.747 93.7701C199.282 75.4668 215.76 58.2144 233.096 42.1026C250.103 26.4272 266.168 13.8419 280.826 4.69686C295.485 -4.44816 307.905 -9.55236 317.677 -10.5782C327.117 -11.554 333.743 -8.65162 337.355 -1.95862C340.967 4.73439 341.388 14.8927 338.618 28.2162C335.737 41.9775 329.532 58.6412 320.181 77.6193C309.651 98.5826 297.783 118.652 284.671 137.669C270.549 158.326 255.424 178.085 239.367 196.855C223.819 215.162 207.326 232.415 189.974 248.522C172.978 264.198 156.912 276.783 142.243 285.928C127.573 295.073 115.186 300.202 105.403 301.228C95.9633 302.204 89.3377 299.302 85.7257 292.609C82.1138 285.916 81.6816 275.757 84.4626 262.434C87.3433 248.672 93.5479 232.009 102.899 213.031L102.932 213.006ZM101.691 213.781C63.0457 292.308 80.7731 325.248 141.478 287.454C202.183 249.661 282.688 155.383 321.378 76.8687C360.068 -1.64585 342.252 -34.623 281.602 3.1706C220.952 40.9642 140.392 135.242 101.691 213.756V213.781Z" stroke="#0D0D0D" stroke-width="2"/>
<path d="M98.6667 203.998C110.994 182.444 124.66 161.905 139.562 142.535C155.359 121.819 172.171 102.118 189.918 83.5243C206.838 65.6563 224.709 48.9739 243.433 33.5707C261.648 18.7085 278.6 7.16149 293.845 -0.757521C309.091 -8.67653 321.688 -12.5047 331.316 -12.1294C340.612 -11.7541 346.739 -7.50057 349.553 0.531038C352.368 8.56264 351.703 19.9345 347.581 34.3714C343.327 49.3837 335.527 66.8981 324.414 86.6268C312.09 108.18 298.428 128.719 283.53 148.09C267.74 168.809 250.931 188.51 233.184 207.101C216.264 224.972 198.388 241.655 179.659 257.055C161.455 271.917 144.492 283.464 129.258 291.383C114.023 299.302 101.414 303.13 91.7863 302.755C82.4905 302.379 76.3524 298.126 73.5493 290.094C70.7461 282.063 71.3998 270.691 75.5214 256.254C79.776 241.304 87.576 223.727 98.6889 203.998H98.6667ZM97.4369 204.649C51.4787 286.216 65.306 325.773 128.349 292.997C191.392 260.22 279.708 167.543 325.632 85.9763C371.557 4.40924 357.763 -35.1483 294.72 -2.37135C231.677 30.4056 143.373 123.082 97.3926 204.649H97.4369Z" stroke="#0D0D0D" stroke-width="2"/>
<path d="M95.4869 193.315C109.62 171.378 125.095 150.585 141.8 131.089C159.221 110.576 177.665 91.2037 197.043 73.0658C215.242 55.8812 234.401 40.0356 254.402 25.6268C273.691 11.8655 291.419 1.61955 307.085 -4.86078C322.752 -11.3411 335.427 -13.618 344.756 -11.7414C353.764 -9.90242 359.281 -4.23526 361.165 5.18498C363.048 14.6052 361.165 27.1656 355.625 42.6283C349.897 58.6414 340.457 77.0441 327.56 97.3107C313.445 119.242 297.992 140.035 281.314 159.537C263.89 180.046 245.446 199.419 226.071 217.56C207.871 234.744 188.712 250.59 168.712 264.999C149.422 278.76 131.695 289.006 116.028 295.486C100.362 301.967 87.6868 304.243 78.3578 302.367C69.3501 300.528 63.8213 294.861 61.9378 285.44C60.0543 276.02 61.9378 263.46 67.4776 247.997C73.2058 231.984 82.6456 213.581 95.5423 193.315H95.4869ZM94.257 193.84C40.9087 277.659 50.1934 323.947 114.987 297.15C179.781 270.353 275.575 180.642 328.934 96.7853C382.294 12.9289 372.998 -33.3217 308.193 -6.52464C243.389 20.2724 147.561 109.984 94.2016 193.84H94.257Z" stroke="#0D0D0D" stroke-width="2"/>
<path d="M93.5368 180.967C109.444 158.886 126.7 138.089 145.179 118.728C164.151 98.6937 184.151 79.9376 205.075 62.5572C224.441 46.3098 244.768 31.5758 265.913 18.4584C286.134 6.11077 304.47 -2.58388 320.403 -7.38783C336.335 -12.1918 348.9 -12.8173 357.763 -9.1893C366.328 -5.72396 371.059 1.46946 371.934 12.2283C372.809 22.9871 369.641 36.7485 362.627 53.1494C355.359 70.1134 344.224 89.1666 329.521 109.784C313.614 131.864 296.358 152.661 277.879 172.022C258.905 192.054 238.905 210.81 217.983 228.193C198.639 244.394 178.338 259.086 157.222 272.167C136.991 284.515 118.665 293.209 102.733 298.013C86.8004 302.817 74.1253 303.443 65.2616 299.877C56.6971 296.412 51.9661 289.218 51.0797 278.46C50.1934 267.701 53.3843 253.94 60.3977 237.539C67.6992 220.575 78.8342 201.521 93.5368 180.967ZM92.2294 181.355C31.4356 266.625 35.5794 319.644 101.47 299.777C167.36 279.911 270.057 194.691 330.818 109.396C391.578 24.1005 387.468 -28.893 321.577 -9.02667C255.687 10.8397 152.979 96.0597 92.2294 181.355V181.355Z" stroke="#0D0D0D" stroke-width="2"/>
<path d="M92.9608 166.755C110.6 144.788 129.598 124.261 149.81 105.33C170.232 86.0558 191.694 68.2319 214.072 51.9608C234.442 36.9614 255.77 23.6891 277.879 12.2532C298.864 1.60693 317.622 -5.26121 333.632 -8.15109C349.642 -11.041 361.94 -9.80245 370.195 -4.398C378.172 0.781258 382.05 9.55097 381.729 21.6859C381.407 33.8209 376.909 48.6706 368.333 65.8723C359.47 83.6744 346.617 103.203 330.131 123.92C312.495 145.887 293.501 166.414 273.292 185.346C252.869 204.617 231.407 222.44 209.031 238.714C188.643 253.717 167.296 266.989 145.168 278.422C124.183 289.068 105.425 295.936 89.4153 298.826C73.4053 301.716 61.0958 300.478 52.8526 295.073C44.8863 289.894 41.0085 281.124 41.3298 268.989C41.6511 256.854 46.1716 242.005 54.7361 224.753C63.5998 206.951 76.4632 187.422 92.9386 166.705L92.9608 166.755ZM91.6312 166.943C23.4584 252.638 21.8297 312.4 88.0968 300.428C154.364 288.455 263.276 209.278 331.449 123.582C399.622 37.8868 401.251 -21.8749 334.984 -9.90253C268.717 2.06982 159.804 81.2975 91.6312 166.993V166.943Z" stroke="#0D0D0D" stroke-width="2"/>
<path d="M93.8693 150.942C113.155 129.362 133.815 109.404 155.682 91.2308C177.404 73.0208 200.167 56.4503 223.822 41.6275C245.076 28.13 267.268 16.6075 290.178 7.17418C311.728 -1.45792 330.707 -6.21183 346.595 -6.96245C362.483 -7.71307 374.294 -4.46039 381.784 2.83311C388.997 9.83887 391.844 20.2224 390.249 33.696C388.653 47.1696 382.693 63.0451 372.521 80.8973C362.007 99.3875 347.426 119.179 329.2 139.696C309.91 161.271 289.25 181.228 267.387 199.407C245.664 217.615 222.901 234.185 199.247 249.011C177.992 262.493 155.801 273.999 132.892 283.414C111.353 292.046 92.3736 296.8 76.4854 297.55C60.5973 298.301 48.7864 295.048 41.2966 287.755C34.0838 280.749 31.2363 270.366 32.8318 256.892C34.4272 243.418 40.3881 227.543 50.5591 209.691C61.0737 191.201 75.6434 171.409 93.8804 150.892L93.8693 150.942ZM92.573 150.892C17.1541 236.012 9.2876 302.392 75.0007 299.277C140.714 296.162 255.1 224.753 330.519 139.683C405.938 54.6132 413.793 -11.6913 348.08 -8.63883C282.367 -5.58632 167.97 65.8724 92.5619 150.942L92.573 150.892Z" stroke="#0D0D0D" stroke-width="2"/>
<path d="M96.4397 133.34C117.281 112.446 139.505 93.3788 162.917 76.3058C185.798 59.4775 209.713 44.5147 234.481 31.5315C258.601 18.9462 281.547 9.48841 302.687 3.42092C324.558 -2.83423 343.537 -5.24871 359.071 -3.62238C374.604 -1.99604 385.784 3.49598 392.31 12.7411C398.592 21.6609 400.265 33.6833 397.284 48.458C394.304 63.2326 386.825 80.0339 375.059 98.374C362.871 117.352 346.595 137.156 326.674 157.285C305.835 178.182 283.611 197.249 260.196 214.319C237.321 231.15 213.409 246.113 188.644 259.094C164.524 271.679 141.578 281.137 120.438 287.204C98.5559 293.459 79.5876 295.874 64.0429 294.248C48.4982 292.621 37.3411 287.129 30.8041 277.884C24.533 268.964 22.86 256.942 25.8404 242.167C28.8209 227.393 36.2996 210.591 48.0661 192.251C60.2537 173.273 76.5297 153.469 96.4397 133.34V133.34ZM95.1766 133.203C12.7887 216.371 -1.89181 289.218 62.381 295.899C126.654 302.579 245.527 240.591 327.904 157.423C410.281 74.2542 424.972 1.40676 360.699 -5.21118C296.427 -11.8291 177.542 50.0343 95.1766 133.203Z" stroke="#0D0D0D" stroke-width="2"/>
<path d="M100.805 114.162C144.636 75.1322 193.571 44.0277 245.859 21.9611C270.656 11.6652 293.989 4.6594 315.196 1.15652C337.155 -2.47147 355.869 -2.18373 370.815 2.01973C385.762 6.22318 396.055 14.0922 401.406 25.4015C406.558 36.3354 406.946 49.9967 402.459 66.0098C397.971 82.023 388.941 99.6125 375.546 118.24C361.686 137.531 343.748 157.11 322.231 176.463C299.989 196.359 276.352 214.182 251.554 229.757C227.696 244.9 202.824 257.909 177.166 268.664C152.359 278.96 129.036 285.966 107.819 289.469C85.8698 293.097 67.1564 292.809 52.1989 288.605C37.2414 284.402 26.9706 276.533 21.6192 265.224C16.4561 254.29 16.0794 240.628 20.5666 224.615C25.0538 208.602 34.1059 190.975 47.5344 172.385C61.395 153.094 79.3329 133.515 100.838 114.162H100.805ZM99.6196 113.824C10.6504 193.89 -11.3427 272.792 50.4926 290.219C112.328 307.646 234.569 256.842 323.527 176.826C412.486 96.8102 434.479 17.8578 372.654 0.430927C310.83 -16.9959 188.545 33.8084 99.6085 113.824H99.6196Z" stroke="#0D0D0D" stroke-width="2"/>
<path d="M107.087 93.4576C130.601 74.8516 155.515 58.6095 181.542 44.9177C206.154 31.8036 231.734 21.1459 257.991 13.0665C283.209 5.41025 306.653 1.20679 327.66 0.556254C349.409 -0.0942809 367.547 3.05831 381.695 10.1141C395.844 17.1699 404.962 27.4784 408.973 40.9269C412.84 53.9126 411.743 69.2002 405.705 86.3768C399.666 103.553 388.997 121.743 373.995 140.459C358.484 159.825 338.939 178.89 315.96 197.143C292.443 215.744 267.53 231.985 241.505 245.683C216.893 258.795 191.312 269.453 165.056 277.534C139.839 285.19 116.394 289.394 95.3872 290.044C73.6268 290.695 55.5006 287.48 41.3519 280.486C27.2033 273.493 18.0848 263.122 14.0629 249.674C10.1961 236.688 11.304 221.4 17.3867 204.224C23.4694 187.047 34.0837 168.857 49.0966 150.142C64.608 130.776 84.1525 111.71 107.132 93.4576H107.087ZM106.024 92.8822C10.9938 168.357 -18.766 253.014 39.546 281.975C97.8579 310.936 222.193 273.218 317.223 197.743C412.253 122.269 442.013 37.6117 383.701 8.65041C325.389 -20.3109 201.053 17.4076 106.013 92.8822H106.024Z" stroke="#0D0D0D" stroke-width="2"/>
<path d="M115.386 71.3269C139.976 54.3631 165.946 40.0947 192.943 28.7169C218.124 17.9315 244.183 9.96994 270.744 4.94736C296.094 0.318552 319.35 -0.744828 339.859 1.79476C361.087 4.49698 378.471 10.8897 391.445 20.8354C404.42 30.7811 412.264 43.8043 414.713 59.4046C417.106 74.417 414.413 91.3684 406.724 109.596C399.035 127.823 386.781 146.451 370.162 165.004C352.999 184.195 331.981 202.447 307.695 219.249C283.105 236.212 257.134 250.481 230.137 261.859C204.955 272.621 178.896 280.562 152.336 285.566C126.986 290.194 103.73 291.258 83.2107 288.718C61.9379 286.129 44.6094 279.798 31.6241 269.79C18.6388 259.782 10.8166 246.821 8.3569 231.221C5.97478 216.209 8.65605 199.257 16.3564 181.03C24.0567 162.802 36.3551 144.174 52.9191 125.622C70.0925 106.431 91.1105 88.1783 115.397 71.377L115.386 71.3269ZM114.289 70.5638C13.8524 139.996 -24.062 229.757 29.6297 271.116C83.3215 312.475 208.299 289.594 308.758 220.112C409.217 150.63 447.132 60.8683 393.44 19.5093C339.748 -21.8497 214.836 1.03163 114.322 70.5138L114.289 70.5638Z" stroke="#0D0D0D" stroke-width="2"/>
<path d="M125.801 47.9449C151.28 32.9338 178.099 21.0198 205.807 12.4032C231.319 4.3211 257.553 -0.508798 284.017 -1.99612C309.179 -3.24715 331.915 -0.83267 351.603 5.18478C371.99 11.4399 388.166 21.2105 399.777 34.3588C411.389 47.5071 417.604 63.1324 418.358 80.9846C419.089 98.1612 414.679 116.576 405.262 135.717C395.844 154.858 381.906 173.736 363.813 191.851C345.077 210.616 322.685 227.705 297.335 242.68C271.856 257.691 245.037 269.605 217.329 278.222C191.817 286.304 165.583 291.134 139.118 292.621C113.957 293.872 91.2101 291.458 71.5328 285.44C51.1463 279.185 34.9701 269.415 23.3697 256.266C11.7694 243.118 5.43183 227.43 4.72273 209.64C3.99148 192.464 8.40116 174.049 17.8077 154.908C27.2143 135.767 41.1746 116.889 59.2676 98.7742C78.0033 80.0088 100.384 62.9198 125.801 47.9449V47.9449ZM124.848 46.8566C19.7356 108.82 -26.699 203.123 21.2203 257.492C69.1396 311.862 193.12 305.719 298.21 243.731C403.3 181.742 449.724 87.5025 401.86 33.1328C353.996 -21.2369 229.96 -15.0944 124.87 46.8941L124.848 46.8566Z" stroke="#0D0D0D" stroke-width="2"/>
<path d="M138.387 23.4624C164.535 10.7452 191.932 1.59391 219.999 -3.79752C245.621 -8.86628 271.712 -10.1991 297.634 -7.76328C322.242 -5.26123 344.169 0.993915 362.649 10.6894C381.817 20.7727 396.553 34.2337 406.425 50.7223C416.203 66.7888 420.842 86.1377 419.576 105.58C418.468 124.858 412.231 144.712 401.051 164.591C389.872 184.47 374.294 203.373 354.761 220.787C334.552 238.814 310.952 254.427 284.649 267.2C258.501 279.916 231.103 289.067 203.037 294.46C177.415 299.529 151.324 300.862 125.402 298.426C100.783 295.924 78.8674 289.669 60.3867 279.973C41.2079 269.89 26.4831 256.429 16.6111 239.94C6.83555 223.873 2.20427 204.523 3.48179 185.083C4.58975 165.804 10.8276 145.938 22.0512 126.072C33.2749 106.205 48.8085 87.2899 68.3307 69.8756C89.7884 51.0179 113.341 35.4142 138.387 23.4624V23.4624ZM137.6 22.0863C28.7655 74.9547 -26.3667 172.948 14.4728 241.016C55.3122 309.085 176.634 321.382 285.48 268.539C394.326 215.695 449.458 117.702 408.608 49.6089C367.757 -18.4846 246.435 -30.7322 137.6 22.0863Z" stroke="#0D0D0D" stroke-width="2"/>
<path d="M153.278 -1.88351C179.872 -11.9883 207.558 -17.9686 235.577 -19.6606C261.087 -21.3522 286.677 -18.7978 311.528 -12.0794C335.216 -5.48647 355.847 4.80949 372.843 18.5458C390.437 32.7575 403.345 50.0467 411.211 69.913C419.069 89.7268 421.504 111.74 418.203 133.127C415.089 154.458 406.924 175.662 393.927 196.079C380.931 216.496 363.791 235.199 342.961 251.587C320.437 269.092 295.813 282.872 269.836 292.509C243.242 302.613 215.556 308.594 187.536 310.286C162.023 311.977 136.429 309.422 111.574 302.704C87.8863 296.111 67.256 285.816 50.271 272.079C32.6433 257.868 19.7245 240.578 11.858 220.712C3.99975 200.898 1.56889 178.883 4.87785 157.498C7.99122 136.168 16.1569 114.963 29.1422 94.5458C42.1275 74.129 59.2898 55.4261 80.1084 39.0376C102.631 21.5312 127.256 7.75136 153.234 -1.88351H153.278ZM152.58 -3.50984C41.1303 38.5873 -22.8876 139.358 9.65316 221.55C42.194 303.743 158.951 336.244 270.445 294.11C381.939 251.975 445.968 151.242 413.427 69.0498C380.886 -13.1428 264.13 -45.6445 152.624 -3.50984H152.58Z" stroke="#0D0D0D" stroke-width="2"/>
<path d="M170.418 -27.8546C197.258 -34.9963 224.917 -37.3934 252.407 -34.9604C277.605 -32.8425 302.316 -26.0149 325.533 -14.7563C347.88 -3.74725 366.871 10.9398 381.95 28.8796C397.125 46.5976 408.086 68.3601 413.815 92.1441C419.37 115.588 419.408 140.263 413.926 163.728C408.641 187.035 398.414 209.391 383.645 230.183C368.876 250.975 350.185 269.152 328.17 284.202C304.761 300.068 279.277 311.654 252.662 318.53C225.822 325.672 198.164 328.069 170.673 325.636C145.475 323.518 120.764 316.691 97.5476 305.432C75.2001 294.423 56.2096 279.736 41.1303 261.796C25.5413 243.181 14.8051 221.901 9.25425 198.482C3.70524 175.037 3.66705 150.364 9.14346 126.898C14.4395 103.591 24.6549 81.2351 39.424 60.443C54.1931 39.6509 72.8955 21.5235 94.9107 6.47365C118.319 -9.39415 143.803 -20.9801 170.418 -27.8546V-27.8546ZM169.964 -29.7687C57.0074 -0.056717 -15.9408 102.415 7.01617 199.12C29.9731 295.824 140.16 350.106 253.116 320.394C366.073 290.682 439.021 188.211 416.064 91.456C393.107 -5.29853 282.921 -59.4806 169.964 -29.7687V-29.7687Z" stroke="#0D0D0D" stroke-width="2"/>
<path d="M189.852 -54.1638C216.724 -57.9811 243.983 -56.3714 270.356 -49.4099C294.994 -42.9996 318.384 -31.5518 339.371 -15.6321C359.393 -0.536458 376.497 18.9848 389.65 41.7526C402.752 64.4861 411.081 90.2979 414.003 117.219C416.926 144.14 414.364 171.46 406.514 197.093C398.632 222.782 386.216 246.398 370.017 266.512C353.079 287.71 332.841 305.222 310.309 318.18C261.676 346.148 205.873 353.886 152.691 340.035C128.057 333.625 104.67 322.177 83.6871 306.258C63.6655 291.162 46.5614 271.641 33.4079 248.873C20.3013 226.142 11.9659 200.332 9.03772 173.411C6.10949 146.489 8.66575 119.169 16.5115 93.5326C24.4128 67.8374 36.8516 44.2206 53.0742 24.1131C70.013 2.91496 90.2502 -14.597 112.782 -27.5544C136.883 -41.5139 162.991 -50.5239 189.885 -54.1638H189.852ZM189.641 -56.3656C76.6294 -40.7027 -5.24887 62.307 6.8279 173.699C18.9047 285.09 120.416 362.666 233.472 346.991C346.529 331.316 428.363 228.318 416.286 116.927C404.209 5.53527 302.664 -72.041 189.608 -56.3656H189.641Z" stroke="#0D0D0D" stroke-width="2"/>
<path d="M211.512 -80.498C257.65 -80.465 302.36 -62.4251 338.067 -29.4344C373.775 3.55637 398.284 49.4697 407.445 100.528C416.606 151.586 409.854 204.651 388.333 250.732C366.813 296.813 331.847 333.078 289.358 353.384C240.564 376.199 185.76 376.302 136.9 353.671C88.0394 331.04 49.0871 287.51 28.5396 232.578C7.99213 177.645 7.51671 115.766 27.2171 60.4395C46.9174 5.11257 85.195 -39.1734 133.7 -62.7584C158.317 -74.5197 184.783 -80.5532 211.512 -80.498V-80.498ZM211.512 -83.0001C171.521 -83.0001 132.427 -69.6098 99.1746 -44.5224C65.9225 -19.4351 40.0057 16.2225 24.7014 57.9412C9.39717 99.6599 5.39288 145.566 13.1949 189.854C20.997 234.143 40.2549 274.824 68.5335 306.754C96.8121 338.684 132.841 360.429 172.065 369.238C211.288 378.048 251.944 373.527 288.892 356.246C325.84 338.966 357.42 309.702 379.638 272.156C401.856 234.611 413.715 190.469 413.715 145.313C413.715 115.33 408.485 85.6414 398.324 57.9412C388.162 30.241 373.268 5.07199 354.491 -16.1288C335.715 -37.3296 313.425 -54.147 288.892 -65.6208C264.36 -77.0946 238.066 -83.0001 211.512 -83.0001V-83.0001Z" stroke="#0D0D0D" stroke-width="2"/>
</g>
<defs>
<linearGradient id="paint0_linear_0_19" x1="196" y1="4" x2="2.77009e-06" y2="158" gradientUnits="userSpaceOnUse">
<stop stop-color="#1E43E2"/>
<stop offset="1" stop-color="#0083C3"/>
</linearGradient>
<clipPath id="clip0_0_19">
<rect width="200" height="158" fill="white"/>
</clipPath>
</defs>
</svg>
