<svg width="200" height="158" viewBox="0 0 200 158" fill="none" xmlns="http://www.w3.org/2000/svg">
<g clip-path="url(#clip0_667_26474)">
<path d="M0 4C0 1.79086 1.79086 0 4 0H196C198.209 0 200 1.79086 200 4V154C200 156.209 198.209 158 196 158H4C1.79086 158 0 156.209 0 154V4Z" fill="#FFD7B3"/>
<path d="M22.9595 -11L82.7194 38.7999" stroke="#0D0D0D" stroke-width="4" stroke-linecap="round"/>
<path d="M19.624 123.913L79.3839 74.1127" stroke="#0D0D0D" stroke-width="4" stroke-linecap="round"/>
<path d="M145 88.1332V53.7199L115.333 70.9265V105.34L145 88.1332Z" fill="#FFD7B3"/>
<path d="M56 71.6199L115.333 105.34V70.9265L56 37.2065V71.6199Z" fill="#0D0D0D"/>
<path d="M145 53.7199L85.6667 19.9999L56 37.2065L115.333 70.9265L145 53.7199Z" fill="#FFD7B3"/>
<path d="M145 53.7199V88.1332L115.333 105.34M145 53.7199L115.333 70.9265M145 53.7199L85.6667 19.9999L56 37.2065M115.333 105.34V70.9265M115.333 105.34L56 71.6199V37.2065M115.333 70.9265L56 37.2065" stroke="#0D0D0D" stroke-width="4"/>
<mask id="mask0_667_26474" style="mask-type:alpha" maskUnits="userSpaceOnUse" x="51" y="35" width="191" height="83">
<path d="M116.209 52.2761L69.2804 115.684" stroke="#0D0D0D" stroke-width="2"/>
<path d="M121.311 51.5246L74.3817 114.932" stroke="#0D0D0D" stroke-width="2"/>
<path d="M126.412 50.7729L79.4833 114.181" stroke="#0D0D0D" stroke-width="2"/>
<path d="M131.514 50.0214L84.5848 113.429" stroke="#0D0D0D" stroke-width="2"/>
<path d="M136.615 49.27L89.6864 112.678" stroke="#0D0D0D" stroke-width="2"/>
<path d="M141.717 48.5182L94.7877 111.926" stroke="#0D0D0D" stroke-width="2"/>
<path d="M146.818 47.7668L99.8893 111.175" stroke="#0D0D0D" stroke-width="2"/>
<path d="M151.92 47.0151L104.991 110.423" stroke="#0D0D0D" stroke-width="2"/>
<path d="M157.021 46.2636L110.092 109.671" stroke="#0D0D0D" stroke-width="2"/>
<path d="M162.123 45.5119L115.194 108.92" stroke="#0D0D0D" stroke-width="2"/>
<path d="M167.224 44.7604L120.295 108.168" stroke="#0D0D0D" stroke-width="2"/>
<path d="M172.326 44.0087L125.397 107.417" stroke="#0D0D0D" stroke-width="2"/>
<path d="M177.427 43.2573L130.498 106.665" stroke="#0D0D0D" stroke-width="2"/>
<path d="M182.529 42.5056L135.6 105.913" stroke="#0D0D0D" stroke-width="2"/>
<path d="M187.63 41.7541L140.701 105.162" stroke="#0D0D0D" stroke-width="2"/>
<path d="M192.732 41.0024L145.803 104.41" stroke="#0D0D0D" stroke-width="2"/>
<path d="M197.833 40.2509L150.904 103.659" stroke="#0D0D0D" stroke-width="2"/>
<path d="M202.935 39.4994L156.006 102.907" stroke="#0D0D0D" stroke-width="2"/>
<path d="M208.036 38.7477L161.107 102.156" stroke="#0D0D0D" stroke-width="2"/>
<path d="M213.138 37.9963L166.209 101.404" stroke="#0D0D0D" stroke-width="2"/>
<path d="M218.239 37.2446L171.31 100.652" stroke="#0D0D0D" stroke-width="2"/>
<path d="M223.341 36.4931L176.412 99.9009" stroke="#0D0D0D" stroke-width="2"/>
</mask>
<g mask="url(#mask0_667_26474)">
<path d="M114.5 70.5L144.5 54V87.5L116 105L114.5 70.5Z" fill="#0D0D0D"/>
</g>
</g>
<defs>
<clipPath id="clip0_667_26474">
<path d="M0 4C0 1.79086 1.79086 0 4 0H196C198.209 0 200 1.79086 200 4V154C200 156.209 198.209 158 196 158H4C1.79086 158 0 156.209 0 154V4Z" fill="white"/>
</clipPath>
</defs>
</svg>
