<svg width="460" height="100" viewBox="0 0 460 100" fill="none" xmlns="http://www.w3.org/2000/svg">
<path fill-rule="evenodd" clip-rule="evenodd" d="M0 0H20H60V20H20V40H60V60H20V80H60V100H20H0V0ZM300 0C311.046 0 320 8.95431 320 20V79.9998V80C320 91.0456 311.046 99.9998 300 99.9998H260V100H240V0H260H300ZM300 20V79.9998H260V20H300ZM440 20H400V100H380V0H400H440C451.046 0 460 8.95431 460 20V100H440V20ZM80 0H100V80H120V100H100H80V0ZM340 0H360V100H340V0ZM220 20C220 8.95431 211.046 0 200 0H180C168.954 0 160 8.95431 160 20V7.62939e-06C148.954 6.66375e-06 140 8.95431 140 20V40V60V80H160V80.0003H140C140 91.046 148.954 100 160 100V100H180H200V100C211.046 100 220 91.046 220 80.0003H200V80H220V60V40V20ZM200 80H180H160V60V40V20L180 20H200V40V60V80Z" fill="white"/>
</svg>
