<svg width="200" height="158" viewBox="0 0 200 158" fill="none" xmlns="http://www.w3.org/2000/svg">
<g clip-path="url(#clip0_1829_6038)">
<path d="M0 4C0 1.79086 1.79086 0 4 0H196C198.209 0 200 1.79086 200 4V154C200 156.209 198.209 158 196 158H4C1.79086 158 0 156.209 0 154V4Z" fill="#FEC504"/>
<path d="M65 43L35.5 43C35.5481 54.9999 35.5 67 35.5 79L65 79L63 61L65 43Z" fill="#0D0D0D"/>
<path d="M63 43L18.3104 49C17.4332 49.0023 16.5926 49.3191 15.9724 49.8812C13.3065 52.2972 13.3065 69.7028 15.9724 72.1188C16.5926 72.6809 17.4332 72.9977 18.3104 73L63 79L63 43Z" fill="#0D0D0D"/>
<path d="M149 43.0002L136.5 43.0002C136.5 43.0002 136.505 44.3681 136.5 46.0002C136.5 62.4261 136.5 61.1303 136.5 76C136.505 77.6321 136.5 79 136.5 79L149 79L185.5 61.0001L149 43.0002Z" fill="#0D0D0D"/>
<mask id="mask0_1829_6038" style="mask-type:alpha" maskUnits="userSpaceOnUse" x="10" y="16" width="191" height="84">
<path d="M75.2092 34.2729L28.2804 97.6807" stroke="#0D0D0D" stroke-width="2"/>
<path d="M80.3108 33.5214L33.3819 96.9293" stroke="#0D0D0D" stroke-width="2"/>
<path d="M85.4123 32.77L38.4835 96.1778" stroke="#0D0D0D" stroke-width="2"/>
<path d="M90.5134 32.018L43.5846 95.4258" stroke="#0D0D0D" stroke-width="2"/>
<path d="M95.615 31.2665L48.6861 94.6744" stroke="#0D0D0D" stroke-width="2"/>
<path d="M100.717 30.5151L53.7877 93.9229" stroke="#0D0D0D" stroke-width="2"/>
<path d="M105.818 29.7636L58.8893 93.1714" stroke="#0D0D0D" stroke-width="2"/>
<path d="M110.92 29.0121L63.9908 92.42" stroke="#0D0D0D" stroke-width="2"/>
<path d="M116.021 28.2602L69.0924 91.668" stroke="#0D0D0D" stroke-width="2"/>
<path d="M121.123 27.5087L74.1939 90.9166" stroke="#0D0D0D" stroke-width="2"/>
<path d="M126.224 26.7573L79.2955 90.1651" stroke="#0D0D0D" stroke-width="2"/>
<path d="M131.325 26.0058L84.3966 89.4136" stroke="#0D0D0D" stroke-width="2"/>
<path d="M136.427 25.2538L89.4981 88.6617" stroke="#0D0D0D" stroke-width="2"/>
<path d="M141.529 24.5024L94.5997 87.9102" stroke="#0D0D0D" stroke-width="2"/>
<path d="M146.63 23.7509L99.7013 87.1587" stroke="#0D0D0D" stroke-width="2"/>
<path d="M151.732 22.9994L104.803 86.4073" stroke="#0D0D0D" stroke-width="2"/>
<path d="M156.833 22.248L109.904 85.6558" stroke="#0D0D0D" stroke-width="2"/>
<path d="M161.935 21.496L115.006 84.9039" stroke="#0D0D0D" stroke-width="2"/>
<path d="M167.036 20.7446L120.107 84.1524" stroke="#0D0D0D" stroke-width="2"/>
<path d="M172.137 19.9931L125.209 83.4009" stroke="#0D0D0D" stroke-width="2"/>
<path d="M177.239 19.2416L130.31 82.6495" stroke="#0D0D0D" stroke-width="2"/>
<path d="M182.341 18.4897L135.412 81.8975" stroke="#0D0D0D" stroke-width="2"/>
</mask>
<g mask="url(#mask0_1829_6038)">
<path d="M136.5 43.0008C113.167 43.0008 88.3325 43.0811 64.9999 43.0008C64.9999 58.2488 62.9999 57.2059 63 61.0009C63 63.532 65 69.6028 65 79.001L136.5 79.0005L136.5 43.0008Z" fill="#0D0D0D"/>
</g>
<path d="M43 21L65 43H35.5L30.5 21H43Z" fill="#0D0D0D"/>
<path d="M43 101L65 79H35.5L30.5 101H43Z" fill="#0D0D0D"/>
<path d="M71 91C66.5817 91 63 77.5685 63 61C63 44.4315 66.5817 31 71 31" stroke="#FEC504" stroke-width="3"/>
<path d="M130 91C134.418 91 138 77.5685 138 61C138 44.4315 134.418 31 130 31" stroke="#FEC504" stroke-width="3"/>
<path d="M33 79C28.5817 79 25 70.9411 25 61C25 51.0589 28.5817 43 33 43" stroke="#FEC504" stroke-width="3"/>
</g>
<defs>
<clipPath id="clip0_1829_6038">
<path d="M0 4C0 1.79086 1.79086 0 4 0H196C198.209 0 200 1.79086 200 4V154C200 156.209 198.209 158 196 158H4C1.79086 158 0 156.209 0 154V4Z" fill="white"/>
</clipPath>
</defs>
</svg>
