<?xml version="1.0" standalone="no"?>
<!DOCTYPE svg PUBLIC "-//W3C//DTD SVG 20010904//EN"
 "http://www.w3.org/TR/2001/REC-SVG-20010904/DTD/svg10.dtd">
<svg version="1.0" xmlns="http://www.w3.org/2000/svg"
 width="700.000000pt" height="700.000000pt" viewBox="0 0 700.000000 700.000000"
 preserveAspectRatio="xMidYMid meet">
<metadata>
Created by potrace 1.14, written by Peter Selinger 2001-2017
</metadata>
<g transform="translate(0.000000,700.000000) scale(0.100000,-0.100000)"
fill="#000000" stroke="none">
<path d="M2295 6555 c-251 -33 -447 -133 -628 -318 -185 -190 -288 -405 -344
-715 -3 -20 -7 -914 -8 -1987 -2 -2033 -2 -2043 39 -2205 106 -410 385 -724
751 -843 94 -31 121 -36 235 -45 159 -13 2317 -6 2400 7 294 48 550 216 727
476 107 158 190 382 210 570 11 93 10 3943 0 4019 -44 323 -205 624 -436 809
-167 135 -347 212 -541 233 -85 9 -1214 9 -1308 0 -326 -31 -656 -264 -824
-581 -75 -140 -130 -304 -144 -432 -4 -26 -9 -51 -13 -55 -3 -4 -6 236 -5 532
0 372 -3 540 -10 543 -6 2 -51 -2 -101 -8z m2295 -1225 c4 -6 5 -3585 1 -3651
-1 -14 -100 -16 -1088 -16 -599 0 -1090 3 -1093 7 -4 6 -5 3582 -1 3651 1 15
94 16 1089 16 598 0 1089 -3 1092 -7z"/>
</g>
</svg>
