<svg width="200" height="158" viewBox="0 0 200 158" fill="none" xmlns="http://www.w3.org/2000/svg">
<path d="M0 4C0 1.79086 1.79086 0 4 0H196C198.209 0 200 1.79086 200 4V154C200 156.209 198.209 158 196 158H4C1.79086 158 0 156.209 0 154V4Z" fill="white" fill-opacity="0.9"/>
<g clip-path="url(#clip0_0_16)">
<path d="M-38.8902 155.49C-33.5695 145.193 -25.5219 136.708 -17.6588 128.335C-9.40696 119.545 -0.922717 110.846 8.7967 103.655C18.522 96.4623 29.2527 91.3302 41.2033 89.2147C49.8641 87.6821 58.8076 87.0337 67.1155 83.9514C77.8916 79.9507 83.0478 72.2981 88.5226 62.5943C95.6412 49.9697 105.92 45.5815 120.097 48.203C145.041 52.8173 169.534 66.0676 190.31 80.2526C204.532 89.9643 232.116 105.824 226.827 126.569C220.498 151.386 189.201 151.064 169.701 158.149C159.057 162.014 151.873 169.973 142.249 175.442C132.232 181.137 121.471 178.95 110.502 178.602C95.6454 178.133 83.8835 184.067 82.8641 200.197C82.1256 211.879 86.3394 224.381 80.7153 235.403C73.9562 248.642 58.9915 243.84 48.0155 239.584C35.1494 234.594 22.3676 229.401 9.56723 224.243C-13.2284 215.053 -46.7724 204.395 -44.3098 173.954C-43.7902 167.52 -41.7992 161.234 -38.8941 155.487L-38.8902 155.49Z" stroke="#131212" stroke-width="0.25" stroke-miterlimit="10"/>
<path d="M-38.2522 154.273C-44.3124 165.553 -47.0471 179.866 -41.2442 191.815C-35.4412 203.763 -21.6618 210.957 -9.65207 216.271C2.7124 221.742 15.3629 226.601 27.9128 231.629C34.3739 234.219 40.8412 236.797 47.3298 239.317C53.8185 241.838 60.5603 244.832 67.6114 244.247C80.7815 243.157 84.0985 229.366 83.6674 218.257C83.208 206.451 79.8354 191.37 90.7783 183.022C101.634 174.735 116.823 180.301 129.19 179.379C140.111 178.565 147.235 171.704 155.684 165.566C173.85 152.368 199.053 155.808 216.574 141.866C225.812 134.514 230.754 121.893 224.846 110.97C220.035 102.068 211.348 95.9377 203.508 89.8945C184.482 75.2327 163.69 62.922 141.115 54.5583C129.727 50.3421 115.346 44.5071 103.128 48.588C89.8606 53.0202 88.0114 68.2819 78.7305 77.0195C64.5845 90.3404 41.8495 86.5944 24.9585 94.0628C3.64245 103.492 -14.2008 122.937 -28.7968 140.644C-32.3158 144.913 -35.5761 149.425 -38.256 154.271L-38.2522 154.273Z" stroke="#131212" stroke-width="0.25" stroke-miterlimit="10"/>
<path d="M-38.2521 154.273C-44.3124 165.553 -47.0471 179.866 -41.2441 191.814C-35.2203 204.213 -21.6618 210.957 -9.65204 216.271C2.71243 221.742 15.3629 226.601 27.9128 231.629C34.3739 234.218 40.8412 236.797 47.3299 239.317C53.8185 241.838 60.5603 244.831 67.6114 244.247C80.7816 243.156 84.0985 229.365 83.6674 218.257C83.208 206.451 79.8355 191.37 90.7783 183.022C101.634 174.735 116.823 180.301 129.19 179.379C140.111 178.565 147.235 171.704 155.684 165.566C173.85 152.368 199.053 155.808 216.574 141.866C225.812 134.514 230.754 121.893 224.846 110.97C220.035 102.068 211.348 95.9376 203.508 89.8944C184.482 75.2327 163.69 62.9219 141.115 54.5582C129.727 50.3421 115.346 44.5071 103.128 48.5879C89.8606 53.0202 88.0115 68.2819 78.7306 77.0195C64.5845 90.3404 41.8495 86.5943 24.9585 94.0628C3.64248 103.492 -14.2007 122.937 -28.7968 140.644C-32.3157 144.913 -35.5761 149.425 -38.256 154.271L-38.2521 154.273Z" stroke="#131212" stroke-width="0.25" stroke-miterlimit="10"/>
<path d="M-38.8902 155.49C-33.5695 145.193 -25.5219 136.708 -17.6588 128.335C-9.40696 119.545 -0.922717 110.846 8.7967 103.655C18.522 96.4623 29.2527 91.3302 41.2033 89.2147C49.8641 87.6821 58.8076 87.0337 67.1155 83.9514C77.8916 79.9507 83.0478 72.2981 88.5226 62.5943C95.6412 49.9697 105.92 45.5815 120.097 48.203C145.041 52.8173 169.534 66.0676 190.31 80.2526C204.532 89.9643 232.116 105.824 226.827 126.569C220.498 151.386 189.201 151.064 169.701 158.149C159.057 162.014 151.873 169.973 142.249 175.442C132.232 181.137 121.471 178.95 110.502 178.602C95.6454 178.133 83.8835 184.067 82.8641 200.197C82.1256 211.879 86.3394 224.381 80.7153 235.403C73.9562 248.642 58.9915 243.84 48.0155 239.584C35.1494 234.594 22.3676 229.401 9.56723 224.243C-13.2284 215.053 -46.7724 204.395 -44.3098 173.954C-43.7902 167.52 -41.7992 161.234 -38.8941 155.487L-38.8902 155.49Z" stroke="#131212" stroke-width="0.25" stroke-miterlimit="10"/>
<path d="M149.968 114.174C150.551 125.963 138.213 134.579 129.154 139.77C119.49 145.306 108.617 148.271 98.226 152.08C87.2685 156.096 77.1728 161.681 68.3551 169.379C60.0335 176.644 51.5147 186.238 40.0556 187.948C28.7958 189.626 15.3343 183.132 11.3204 172.097C7.10087 160.501 14.2227 148.199 21.882 139.875C38.2907 122.041 62.5675 116.649 83.8358 106.952C93.7536 102.428 103.673 96.2838 114.594 94.5457C125.515 92.8075 139.354 95.9179 146.332 105.492C148.333 108.235 149.337 110.863 149.968 114.184L149.968 114.174Z" stroke="#131212" stroke-width="4" stroke-miterlimit="10"/>
<path d="M164.708 101.876C187.506 128.312 132.357 151.83 113.762 156.711C99.6642 160.413 86.2903 164.338 75.3316 174.451C65.1826 183.816 57.9379 199.342 43.1331 201.921C28.5023 204.469 9.7814 196.297 0.728617 184.776C-9.40032 171.881 -4.5123 156.465 3.9244 144.217C12.3611 131.969 23.7378 122.828 36.4942 116.39C49.0767 110.035 62.8613 106.767 75.6674 100.959C88.6433 95.0742 100.601 84.8686 114.669 81.907C129.194 78.8512 144.957 84.7519 156.369 93.685C159.469 96.1124 162.189 98.8582 164.709 101.882L164.708 101.876Z" stroke="#131212" stroke-width="0.25" stroke-miterlimit="10"/>
<path d="M184.382 116.755C183.89 133.135 160.17 142.905 148.232 149.959C140.775 154.365 133.304 158.157 124.953 160.588C116.99 162.904 108.678 163.746 100.705 165.991C93.3255 168.068 86.092 171.549 80.3735 176.723C74.2485 182.266 70.3763 189.481 66.0534 196.378C61.3228 203.92 55.6436 210.356 46.3938 211.763C37.7322 213.077 28.5544 210.422 20.4836 207.51C5.82028 202.224 -12.2679 192.517 -15.3388 175.672C-18.466 158.519 -5.61469 142.275 5.48694 130.737C17.7795 117.965 32.7771 109.438 49.5822 104.102C65.6308 99.0049 79.8727 93.5479 93.7125 83.708C100.815 78.6598 107.883 73.8691 116.704 72.6255C125.524 71.382 133.977 73.4678 141.985 76.3599C156.459 81.5931 172.638 91.4046 180.772 104.89C183.066 108.69 183.998 112.411 184.378 116.752L184.382 116.755Z" stroke="#131212" stroke-width="0.25" stroke-miterlimit="10"/>
<path d="M189.521 102.299C195.603 110.168 198.401 120.235 191.955 128.756C186.983 135.327 178.9 139.411 171.697 143.081C155.042 151.566 139.388 163.582 120.621 166.716C102.261 169.783 85.6736 171.555 75.4767 189.141C71.11 196.677 69.1645 206.031 63.3474 212.704C56.7531 220.265 46.886 220.301 37.7381 218.714C20.1888 215.667 -0.395012 207.367 -13.4374 194.963C-29.9541 179.252 -23.3481 158.237 -11.4245 142.054C-0.550242 127.299 13.8598 113.874 30.5597 106.055C46.7839 98.4585 65.2321 97.1291 80.5868 87.476C88.7523 82.3452 95.2241 74.8457 103.571 70.0552C111.918 65.2647 121.57 64.851 130.983 66.8529C148.634 70.6069 166.195 80.1924 179.681 92.0606C183.255 95.2092 186.434 98.6776 189.517 102.297L189.521 102.299Z" stroke="#131212" stroke-width="0.25" stroke-miterlimit="10"/>
<path d="M205.072 118.051C206.874 138.311 175.9 145.516 162.149 152.395C153.29 156.825 145.364 163.222 136.141 166.901C126.612 170.696 116.514 170.538 106.519 171.897C97.2502 173.155 88.2776 176.224 82.344 183.861C76.3314 191.599 74.5508 201.087 71.4774 210.197C67.6517 221.539 59.4876 226.868 47.5013 225.733C37.5741 224.792 27.5952 221.224 18.338 217.646C0.863074 210.889 -23.3004 201.78 -28.9064 181.755C-34.5194 161.707 -18.4656 142.51 -5.7658 128.985C8.05952 114.265 23.6705 102.868 43.2886 97.3835C52.7258 94.7439 62.4749 93.1723 71.462 89.1084C80.449 85.0444 87.1855 78.3255 94.2629 71.4055C101.8 64.0278 110.063 59.9872 120.766 60.5077C130.858 60.9988 140.895 64.633 150.08 68.6267C168.344 76.5662 187.725 88.4505 199.605 104.797C202.579 108.89 204.222 113.099 205.074 118.057L205.072 118.051Z" stroke="#131212" stroke-width="0.25" stroke-miterlimit="10"/>
<path d="M209.517 109.712C221.924 135.362 189.861 144.206 172.165 151.126C162.077 155.069 153.524 160.879 144.293 166.408C134.478 172.287 124.696 173.188 113.52 173.717C103.565 174.189 92.8755 175.242 85.6156 182.938C78.7303 190.233 77.6794 200.136 75.7597 209.533C73.5704 220.243 69.9542 230.329 57.44 231.221C47.6177 231.923 37.0723 227.885 27.9617 224.649C9.26755 218.008 -13.8589 210.764 -27.2075 195.235C-43.3063 176.503 -30.462 153.144 -17.2793 137.237C-3.9508 121.152 12.2965 105.197 32.2348 97.7951C41.9422 94.1898 52.2816 92.9522 62.1964 90.0965C72.8433 87.0291 81.2205 81.6075 88.4968 73.2781C96.395 64.2375 103.328 56.4786 116.186 56.2573C126.891 56.0719 137.822 60.0808 147.61 64.0201C166.789 71.738 184.927 83.2907 199.839 97.62C203.399 101.042 207.461 105.171 209.513 109.72L209.517 109.712Z" stroke="#131212" stroke-width="0.25" stroke-miterlimit="10"/>
<path d="M210.955 104.12C218.714 113.228 221.013 125.223 212.594 134.798C204.984 143.451 193.272 146.743 182.686 150.09C172.66 153.261 163.033 156.718 154.194 162.546C144.2 169.139 135.754 174.963 123.371 175.521C113.276 175.976 102.381 174.413 93.0245 179.142C83.014 184.194 79.9651 194.721 79.0384 205.115C78.1474 215.124 78.2382 228.598 68.0265 233.976C58.4617 239.017 45.0157 233.372 35.6382 230.09C25.1472 226.418 14.7262 222.442 4.50018 218.089C-6.26122 213.509 -17.8209 208.716 -26.6222 200.814C-45.244 184.098 -38.4558 160.132 -24.9407 142.596C-11.4988 125.159 5.84542 107.02 26.1278 97.8033C46.3036 88.6375 70.6037 91.9748 85.8246 73.3402C92.5735 65.0815 97.8036 55.6109 109.2 53.4329C120.403 51.2934 132.643 55.714 143.022 59.538C163.612 67.1242 183.27 78.926 199.856 93.2663C203.783 96.6596 207.683 100.073 210.951 104.118L210.955 104.12Z" stroke="#131212" stroke-width="0.25" stroke-miterlimit="10"/>
<path d="M216.507 105.996C224.749 116.076 223.704 128.799 214.685 137.865C207.069 145.517 195.744 148.549 185.635 151.289C175 154.171 164.547 157.299 155.349 163.581C145.749 170.14 137.776 176.714 125.617 177.205C114.777 177.642 102.245 174.829 92.3088 180.539C81.6275 186.676 80.8115 199.196 80.5954 210.231C80.3839 220.884 80.0013 235.837 67.1418 239.002C57.0013 241.499 44.9181 235.627 35.576 232.151C25.0154 228.224 14.5187 224.124 4.11446 219.807C-6.88276 215.243 -18.417 210.567 -27.7262 202.974C-49.2593 185.41 -40.8409 158.704 -25.4484 140.236C-11.4333 123.42 5.0059 105.365 25.322 96.2506C45.4427 87.2231 70.7348 91.4032 85.1516 71.8891C91.9685 62.664 96.7318 52.4667 109.323 50.7374C120.878 49.1537 133.526 53.8985 144.119 58.0211C166.028 66.5481 186.38 78.9226 204.339 94.0596C208.741 97.7696 212.856 101.527 216.513 105.995L216.507 105.996Z" stroke="#131212" stroke-width="0.25" stroke-miterlimit="10"/>
<path d="M223.787 113.387C232.908 142.299 196.836 149.391 177.147 154.887C165.247 158.206 156.737 164.203 146.836 171.237C136.847 178.332 127.09 178.594 115.318 178.049C104.249 177.538 91.3781 177.664 85.2651 188.648C79.472 199.059 83.0161 211.521 81.9218 222.773C80.5396 236.998 70.976 244.668 56.8632 241.014C45.4507 238.059 34.4432 233.149 23.4979 228.846C12.4949 224.522 1.47702 220.179 -9.31306 215.343C-20.1031 210.506 -31.3141 204.601 -37.9584 194.511C-52.2618 172.797 -34.7675 147.921 -19.937 132.119C-4.35938 115.52 12.0847 97.8583 34.752 91.5321C45.7393 88.4658 57.4723 88.5254 68.1262 84.2115C79.6156 79.5588 84.3936 70.842 90.8482 60.9712C105.441 38.6467 135.467 52.5121 154.548 61.1059C175.658 70.6148 196.372 83.7087 213.342 99.5316C217.499 103.405 221.632 108.051 223.779 113.383L223.787 113.387Z" stroke="#131212" stroke-width="0.25" stroke-miterlimit="10"/>
<path d="M224.503 111.304C230.918 123.756 223.587 137.066 212.734 143.941C202.584 150.375 190.6 151.949 179.235 155.038C167.558 158.21 158.703 162.988 149.157 170.362C140.197 177.282 131.465 179.685 120.241 178.977C110.692 178.379 99.4632 176.675 91.1577 182.53C82.6056 188.559 82.1986 199.363 82.7436 208.863C83.3614 219.608 85.2408 235.038 74.2507 241.527C63.7759 247.712 49.5063 239.916 39.5371 235.983C27.9661 231.42 16.4067 226.8 4.88485 222.101C-6.68288 217.378 -19.0159 212.927 -29.0347 205.266C-51.8494 187.824 -44.7124 160.563 -28.7872 141.01C-13.7771 122.583 5.15572 101.908 27.7347 93.1231C46.9716 85.6386 71.804 90.084 84.3484 70.3133C91.5054 59.0338 96.5247 47.7693 111.766 47.6653C123.808 47.5812 136.432 52.7277 147.403 57.2572C171.361 67.1491 194.464 81.2436 213.825 98.5473C218.058 102.334 221.633 106.396 224.501 111.298L224.503 111.304Z" stroke="#131212" stroke-width="0.25" stroke-miterlimit="10"/>
<path d="M251.243 -42.035C263.248 -16.5585 258.19 22.7872 227.367 32.2029C196.976 41.488 170.583 10.026 139.749 17.441C122.089 21.6865 108.484 35.1492 93.4763 44.527C77.1852 54.7123 58.5631 58.8705 40.549 64.8519C24.0904 70.3223 6.89241 77.7971 -4.36054 91.5276C-16.9941 106.938 -15.973 125.499 -15.2042 144.23C-14.6237 158.424 -15.0595 174.274 -25.3668 185.296C-35.9902 196.659 -51.5718 195.335 -62.0246 184.517C-72.6458 173.534 -74.9521 157.935 -78.8879 143.822C-82.6986 130.145 -89.4721 119.484 -98.4827 108.707C-108.586 96.6251 -120.367 82.5915 -117.551 65.6528C-114.697 48.5015 -97.2341 41.803 -84.2559 33.4493C-49.2504 10.9233 -14.6824 -12.1004 21.2422 -33.1833C54.9323 -52.9608 89.7712 -74.4396 127.745 -84.8226C165.718 -95.2056 208.198 -92.4521 235.941 -63.9971C242.21 -57.5712 247.414 -50.1686 251.235 -42.0377L251.243 -42.035Z" stroke="#0D0D0D" stroke-width="0.25" stroke-miterlimit="10"/>
<path d="M251.803 -40.8325C235.292 -77.5742 195.529 -92.4273 157.351 -89.9277C118.328 -87.3715 83.254 -68.0386 49.7805 -49.467C12.8369 -28.9735 -23.0724 -6.67718 -58.4474 16.4116C-73.2801 26.0931 -89.0732 34.9753 -103.48 45.2271C-118.134 55.6598 -121.252 71.9404 -113.539 87.8524C-107.17 100.999 -95.4806 110.582 -87.7246 122.83C-79.9686 135.078 -77.9875 150.561 -73.2184 164.676C-68.8347 177.644 -59.6257 192.457 -44.4543 193.532C-30.1533 194.542 -20.1464 181.668 -16.8434 169.107C-12.4461 152.396 -17.2503 134.924 -15.3045 117.974C-13.0409 98.2531 -0.203534 84.0848 16.7201 74.852C32.3236 66.3373 49.6348 62.5036 66.3406 56.8522C84.8941 50.574 99.2561 40.2166 115.294 29.4034C130.271 19.3027 145.708 13.5259 163.783 18.0205C178.148 21.5953 191.138 29.4038 205.634 32.5458C237.783 39.5096 260.223 10.4571 257.385 -19.8555C256.708 -27.1125 254.726 -34.1689 251.803 -40.8325Z" stroke="#0D0D0D" stroke-width="0.25" stroke-miterlimit="10"/>
<path d="M251.803 -40.8325C235.292 -77.5742 195.529 -92.4273 157.351 -89.9277C118.328 -87.3715 83.254 -68.0386 49.7805 -49.467C12.8369 -28.9735 -23.0724 -6.67718 -58.4474 16.4116C-73.2801 26.0931 -89.0732 34.9753 -103.48 45.2271C-117.887 55.4788 -121.252 71.9404 -113.539 87.8524C-107.17 100.999 -95.4806 110.582 -87.7246 122.83C-79.9686 135.078 -77.9875 150.561 -73.2184 164.676C-68.8347 177.644 -59.6257 192.457 -44.4543 193.532C-30.1533 194.542 -20.1464 181.668 -16.8434 169.107C-12.4461 152.396 -17.2503 134.924 -15.3045 117.974C-13.0409 98.2531 -0.203534 84.0848 16.7201 74.852C32.3236 66.3373 49.6348 62.5036 66.3406 56.8522C84.8941 50.574 99.2561 40.2166 115.294 29.4034C130.271 19.3027 145.708 13.5259 163.783 18.0205C178.148 21.5953 191.138 29.4038 205.634 32.5458C237.783 39.5096 260.223 10.4571 257.385 -19.8555C256.708 -27.1125 254.726 -34.1689 251.803 -40.8325Z" stroke="#0D0D0D" stroke-width="0.25" stroke-miterlimit="10"/>
<path d="M251.243 -42.035C263.248 -16.5585 258.19 22.7872 227.367 32.2029C196.543 41.6187 170.583 10.026 139.749 17.441C122.089 21.6865 108.484 35.1492 93.4763 44.527C77.1852 54.7123 58.5631 58.8705 40.549 64.8519C24.0904 70.3223 6.89241 77.7971 -4.36054 91.5276C-16.9941 106.938 -15.973 125.499 -15.2042 144.23C-14.6237 158.424 -15.0595 174.274 -25.3668 185.296C-35.9929 196.654 -51.5718 195.335 -62.0246 184.517C-72.6458 173.534 -74.9521 157.935 -78.8879 143.822C-82.6986 130.145 -89.4721 119.484 -98.4827 108.707C-108.586 96.6251 -120.367 82.5915 -117.551 65.6528C-114.697 48.5015 -97.2341 41.803 -84.2559 33.4493C-49.2504 10.9233 -14.6824 -12.1004 21.2422 -33.1833C54.9323 -52.9608 89.7712 -74.4396 127.745 -84.8226C165.718 -95.2056 208.198 -92.4521 235.941 -63.9971C242.21 -57.5712 247.414 -50.1686 251.235 -42.0377L251.243 -42.035Z" stroke="#0D0D0D" stroke-width="0.25" stroke-miterlimit="10"/>
<path d="M-46.7606 83.0397L-51.2025 83.6715L-55.1374 81.7681C-56.223 80.5336 -57.0104 79.1401 -57.6104 77.5948C-57.7773 75.8918 -57.8984 74.1865 -57.998 72.4842C-57.4364 70.4592 -56.8614 68.4343 -56.2274 66.4342C-43.6867 49.4723 -25.0609 40.1802 -8.57918 27.5539C7.90256 14.9276 23.6112 2.77919 40.5796 -8.3002C73.6263 -29.8769 112.694 -55.5595 153.362 -57.4098C174.596 -58.3749 211 -49.181 205.736 -21.0785C204.911 -19.4955 203.948 -17.992 202.914 -16.535C201.491 -15.4377 200.075 -14.3241 198.668 -13.2078C183.313 -7.56505 167.882 -10.4921 151.933 -9.30946C137.469 -8.23398 123.383 -4.96814 110.086 1.01235C96.4872 7.13289 83.6904 14.8546 70.0231 20.8478C56.3557 26.8409 41.3621 30.5565 26.9768 35.2162C11.5041 40.2322 -5.76467 45.5412 -17.6528 57.1867C-24.0352 63.5891 -30.7167 69.6812 -37.0648 76.154C-38.744 77.1949 -40.3261 78.5172 -41.5705 80.0504C-43.2691 80.8593 -44.7384 81.9454 -46.2937 83.0064L-46.7606 83.0397Z" stroke="#0D0D0D" stroke-width="2" stroke-miterlimit="10"/>
<path d="M-61.3245 107.651C-70.3555 98.9903 -79.3956 88.1941 -78.2496 74.761C-77.1858 62.3139 -66.8965 52.8776 -57.6421 45.6237C-39.6332 31.5073 -20.0085 19.0107 -0.746742 6.67778C37.9966 -18.1288 77.5069 -46.4092 121.838 -60.3851C144.242 -67.449 168.974 -70.1415 191.318 -61.4781C202.631 -57.0911 212.663 -49.3621 218.592 -38.6441C225.131 -26.8149 224.862 -9.81144 211.946 -2.33352C201.639 3.62965 188.179 1.47097 176.955 0.24767C165.73 -0.975632 155.183 -2.01991 144.168 -0.682363C120.17 2.23552 100.996 16.0819 79.901 26.6933C58.8059 37.3046 35.3792 42.2313 14.0004 52.3438C-7.37836 62.4563 -21.1647 78.0069 -34.7747 96.5171C-38.2994 101.31 -41.7516 105.289 -46.1428 109.324C-47.8614 109.982 -49.6011 110.583 -51.338 111.176C-53.0264 110.933 -54.7149 110.691 -56.4006 110.453C-58.0392 109.516 -59.6696 108.567 -61.3245 107.651Z" stroke="#0D0D0D" stroke-width="0.25" stroke-miterlimit="10"/>
<path d="M-62.3965 123.476C-76.8361 103.267 -102.81 79.2751 -79.8993 54.8299C-62.6909 36.4753 -38.8602 22.9186 -17.7066 9.59533C24.53 -17.0169 67.2493 -47.5477 114.71 -64.1983C139.205 -72.7927 166.94 -77.6083 192.114 -68.7696C215.53 -60.5489 242.255 -35.005 230.994 -7.55817C219.186 21.2289 182.966 5.51164 160.686 4.14251C133.389 2.4586 113.229 14.7803 90.3167 27.9223C67.4041 41.0644 40.9605 46.4908 17.03 58.0836C-6.90052 69.6763 -21.3192 87.6018 -33.0969 111.021C-35.9644 116.72 -38.5859 122.085 -42.4458 127.236C-44.2004 128.549 -46.1141 129.577 -48.0095 130.67C-49.7237 130.581 -51.4262 130.405 -53.1397 130.249C-54.6452 129.213 -56.2551 128.375 -57.8948 127.558C-59.3455 126.153 -60.7822 124.694 -62.3993 123.484L-62.3965 123.476Z" stroke="#0D0D0D" stroke-width="0.25" stroke-miterlimit="10"/>
<path d="M-46.0755 149.644L-50.7265 149.022C-52.2389 147.862 -53.8586 146.922 -55.4859 145.938C-56.8781 144.337 -58.2182 142.65 -59.8308 141.256C-66.3997 129.502 -75.1181 118.348 -82.8368 107.262C-91.0262 95.501 -101.361 80.8017 -95.7874 65.7309C-91.017 52.8365 -77.124 43.8552 -66.4206 36.2295C-55.0141 28.1062 -43.2675 20.5147 -31.5925 12.8038C-9.06495 -2.07565 13.941 -16.5111 37.3264 -30.018C62.1733 -44.3658 87.5901 -59.6492 114.845 -68.9938C142.101 -78.3384 169.164 -82.0279 195.844 -73.0454C222.523 -64.063 247.389 -36.4443 238.891 -6.93812C228.912 27.7256 191.823 12.9222 167.244 8.91837C153.336 6.65026 140.24 7.28579 126.962 12.3982C113.683 17.5107 101.14 26.8931 88.3282 34.1995C64.1853 47.9688 36.1587 52.2828 11.9535 65.8008C-12.9485 79.7058 -24.4512 101.448 -31.8888 128.081C-33.626 134.31 -35.8431 140.792 -39.7604 146.032C-41.514 147.511 -43.5327 148.53 -45.5203 149.668L-46.0862 149.636L-46.0755 149.644Z" stroke="#0D0D0D" stroke-width="0.25" stroke-miterlimit="10"/>
<path d="M-57.5682 158.306C-65.9755 146.771 -71.0234 133.322 -78.492 121.195C-85.9606 109.069 -97.4102 97.5837 -101.814 83.3643C-106.848 67.0976 -97.9452 54.8763 -85.4198 45.3751C-72.8944 35.8738 -61.1431 27.797 -48.5742 19.6633C-24.1528 3.8527 0.353065 -11.7575 25.2685 -26.776C51.6837 -42.6943 79.0793 -58.4873 107.77 -69.9214C134.634 -80.6314 165.279 -86.0691 193.563 -77.8694C222.527 -69.4719 250.696 -42.0833 245.15 -9.45621C242.285 7.41191 229.755 20.5451 212.243 21.3704C197.656 22.0564 183.644 15.6862 169.694 12.4524C155.03 9.04997 140.437 9.5445 126.492 15.5727C112.546 21.601 100.582 31.3179 87.3785 38.7284C61.8306 53.0694 31.7145 56.5114 6.92744 72.4803C-4.81348 80.0422 -14.3316 90.8798 -19.7303 103.766C-25.4794 117.486 -26.1256 132.219 -29.5615 146.541C-31.5029 154.647 -34.9341 160.924 -42.3211 164.952C-44.1026 165.137 -45.9067 165.152 -47.6936 165.052C-49.3471 164.262 -51.028 163.526 -52.7118 162.798C-54.1972 161.363 -55.7673 160.029 -57.3318 158.68L-57.5737 158.322L-57.5682 158.306Z" stroke="#0D0D0D" stroke-width="0.25" stroke-miterlimit="10"/>
<path d="M-51.693 173.766L-53.8879 172.637C-66.3237 161.083 -69.5801 145.297 -76.8859 130.548C-83.4881 117.214 -93.7664 106.465 -101.372 93.7685C-110.682 78.2269 -110.265 62.0499 -96.2895 49.5534C-85.3659 39.7807 -72.0331 32.1261 -59.9406 23.8962C-34.3983 6.50544 -7.98838 -9.69871 18.4783 -25.6354C44.945 -41.572 74.4571 -59.0085 104.305 -71.3025C132.605 -82.9615 164.822 -89.22 194.871 -80.688C224.471 -72.279 251.768 -45.6456 249.681 -12.9155C248.671 2.95379 239.653 18.7063 223.856 23.7327C208.06 28.7591 192.308 21.8627 177.725 17.1533C162.996 12.394 147.639 10.1148 132.701 15.3462C117.763 20.5777 105.747 30.6824 92.6073 38.719C66.0621 54.9623 33.7554 57.6689 7.7538 74.8746C-4.768 83.1598 -14.669 94.835 -19.0157 109.367C-23.563 124.575 -22.2688 140.547 -25.7578 155.902C-27.5261 163.675 -31.251 170.766 -38.4215 174.715C-40.2219 175.178 -42.0064 175.673 -43.8324 176.001C-45.561 175.731 -47.2785 175.429 -48.9988 175.134L-51.7037 173.758L-51.693 173.766Z" stroke="#0D0D0D" stroke-width="0.25" stroke-miterlimit="10"/>
<path d="M-47.6577 182.597C-64.4383 179.779 -69.8087 156.706 -74.3434 143.456C-79.4656 128.493 -87.7195 116.421 -97.3697 104.018C-106.285 92.5567 -115.891 77.5893 -110.309 62.4673C-104.644 47.1305 -85.168 38.2752 -72.4252 29.7144C-45.5063 11.625 -18.1908 -5.9268 9.64188 -22.5839C37.4746 -39.2409 65.1808 -55.9234 94.5424 -69.2143C123.904 -82.5052 157.528 -91.2418 190.161 -84.152C223.101 -76.9973 254.165 -49.2711 252.759 -13.2772C252.1 3.64158 242.587 21.4871 225.59 26.7771C208.594 32.0672 192.56 24.2755 177.151 19.0433C161.637 13.775 146.334 11.4963 130.755 17.819C116.071 23.7782 103.958 34.3997 90.412 42.3866C62.1993 59.0211 27.1233 60.3154 1.41569 81.7113C-11.1215 92.1508 -17.901 106.744 -19.5367 122.858C-21.1963 139.225 -17.8479 158.334 -27.1216 172.903C-31.4093 179.638 -39.3694 184.938 -47.6575 182.584L-47.6577 182.597Z" stroke="#0D0D0D" stroke-width="0.25" stroke-miterlimit="10"/>
<path d="M-54.6284 184.564C-69.4523 173.739 -72.0637 156.223 -77.6425 139.941C-83.1793 123.785 -93.8112 111.955 -103.85 98.4931C-113.889 85.0315 -119.76 66.2816 -107.036 52.1823C-96.7197 40.7537 -80.081 32.8205 -67.2751 24.4437C-39.859 6.52074 -12.3846 -11.2965 15.8282 -27.9445C44.2228 -44.7014 73.035 -62.2658 103.634 -74.7387C133.43 -86.8795 167.345 -93.3565 198.791 -83.6679C231.256 -73.665 259.74 -42.4122 254.347 -6.54538C251.803 10.3608 240.096 26.9424 222.502 30.2234C205.896 33.3169 189.564 24.8995 174.331 19.5881C158.823 14.1823 143.691 12.9407 128.437 19.9433C112.646 27.1943 99.901 39.6136 84.3879 47.42C55.516 61.9478 18.0884 63.2627 -4.33084 89.0042C-15.1069 101.375 -17.9726 116.412 -18.124 132.406C-18.2878 149.129 -15.7493 170.854 -30.1733 182.899C-37.679 189.172 -46.3571 188.946 -54.6202 184.553L-54.6284 184.564Z" stroke="#0D0D0D" stroke-width="0.25" stroke-miterlimit="10"/>
<path d="M-62.3449 181.373C-73.1513 167.508 -74.7112 150.565 -80.9353 134.651C-86.8093 119.633 -98.3253 109.167 -107.265 96.1013C-117.471 81.1982 -120.94 61.994 -105.974 48.8193C-94.0727 38.3415 -78.4424 30.4041 -65.1271 21.7651C-36.6215 3.27017 -8.11539 -15.2652 21.2986 -32.3117C51.5965 -49.8701 82.2196 -68.7142 115.471 -80.1669C147.258 -91.1131 183.689 -94.236 214.538 -78.5673C244.601 -63.2997 267.674 -24.0121 251.197 8.89908C242.404 26.4603 225.336 35.3142 205.973 31.4949C190.091 28.3586 175.987 19.2426 160.007 16.4829C126.011 10.615 101.916 42.3939 72.5376 53.7406C43.5115 64.9558 6.22863 69.1653 -10.3776 99.1874C-18.5091 113.883 -16.5366 130.544 -16.4436 146.64C-16.3519 162.595 -18.8891 184.959 -37.2565 190.381C-47.0081 193.262 -55.7323 188.034 -62.3557 181.379L-62.3449 181.373Z" stroke="#0D0D0D" stroke-width="0.25" stroke-miterlimit="10"/>
<path d="M-56.5748 188.425C-71.2226 178.91 -74.0921 159.917 -78.2949 144.405C-82.5784 128.59 -91.3307 117.037 -101.615 104.64C-113.16 90.7331 -124.422 71.576 -112.278 54.4053C-107.379 47.4792 -100.299 43.3593 -93.1097 39.146C-85.4568 34.6594 -78.1897 29.6433 -70.7946 24.766C-41.3471 5.35516 -11.5418 -13.4051 18.7662 -31.4515C48.2146 -48.991 78.7357 -67.6043 111.089 -79.2893C145.122 -91.5865 184.757 -95.9381 217.634 -77.737C247.965 -60.9434 269.711 -19.3307 249.966 13.223C240.419 28.965 224.203 35.8938 206.221 32.36C191.044 29.376 177.575 20.9563 162.527 17.4532C128.532 9.53887 105.837 40.6004 77.1786 52.5956C48.5198 64.5909 12.9796 67.0509 -6.38164 93.6277C-16.2167 107.129 -16.4376 123.062 -15.8015 139.047C-15.0993 156.569 -14.1495 179.177 -31.4999 189.597C-39.5878 194.457 -48.7898 193.749 -56.5693 188.423L-56.5748 188.425Z" stroke="#0D0D0D" stroke-width="0.25" stroke-miterlimit="10"/>
</g>
<defs>
<clipPath id="clip0_0_16">
<rect width="200" height="115" fill="white"/>
</clipPath>
</defs>
</svg>
