<svg width="200" height="158" viewBox="0 0 200 158" fill="none" xmlns="http://www.w3.org/2000/svg">
<path d="M0 4C0 1.79086 1.79086 0 4 0H196C198.209 0 200 1.79086 200 4V154C200 156.209 198.209 158 196 158H4C1.79086 158 0 156.209 0 154V4Z" fill="#0D0D0D"/>
<g clip-path="url(#clip0_317_473)">
<path d="M-56.7559 76.4912H19.3582H95.4723H171.586H247.7" stroke="white" stroke-opacity="0.3" stroke-width="0.5" stroke-linecap="round" stroke-linejoin="round"/>
<path d="M-24.0581 30.2439H37.0799H98.218H159.356H220.494" stroke="white" stroke-opacity="0.3" stroke-width="0.5" stroke-linecap="round" stroke-linejoin="round"/>
<path d="M-67.7727 13.3325H-12.1231H43.5476H99.2186H154.889H210.539" stroke="white" stroke-opacity="0.3" stroke-width="0.5" stroke-linecap="round" stroke-linejoin="round"/>
<path d="M1170.24 212.999H1049.92H929.599H809.28H688.961H568.643H448.345H328.026L292.565 152.733L266.995 109.294L247.7 76.4911L232.618 50.8366L220.493 30.2442L210.537 13.3324L202.219 -0.792488L195.178 -12.7693L189.115 -23.065L183.861 -32H142.889H101.897H60.9254H19.9327L13.6148 -23.065L6.33941 -12.7693L-2.12711 -0.792488L-12.1252 13.3324L-24.0595 30.2442L-38.6313 50.8366L-56.7557 76.4911L-79.9428 109.294L-110.661 152.733L-153.249 212.999H-273.568H-393.887H-514.205H-634.524H-754.843H-875.162H-995.48" stroke="white" stroke-opacity="0.3" stroke-width="0.5" stroke-linecap="round" stroke-linejoin="round"/>
<path d="M-514.205 213L-413.074 152.734L-340.151 109.295L-285.097 76.4922L-242.063 50.8376H-174.245H-106.449H-38.6311H29.1865H96.9828H164.8H232.618H300.414H368.232H436.05L476.043 76.4922L527.204 109.295L594.978 152.734L688.961 213" stroke="white" stroke-opacity="0.3" stroke-width="0.5" stroke-linecap="round" stroke-linejoin="round"/>
<path d="M-687.11 109.295L-589.553 76.4924H-513.439L-445.494 50.8379H-377.676L-329.77 30.2455H-268.632H-207.494L-179.116 13.3337H-123.445L-104.299 -0.791189L-88.0684 -12.768H-40.8639L-30.2488 -23.0637H13.6156H57.5013H101.366H145.252H189.116H233.002L242.383 -12.768H289.587L304.415 -0.791189L321.879 13.3337H377.529L403.907 30.2455H465.045H526.183L571.664 50.8379H639.482L704.385 76.4924H780.499L874.163 109.295" stroke="white" stroke-opacity="0.3" stroke-width="0.5" stroke-linecap="round" stroke-linejoin="round"/>
<path d="M-393.887 212.999L-312.264 152.733L-253.423 109.294H-166.694H-79.9437H6.78519H93.5356H180.265H266.994H353.744H440.473L494.166 152.733L568.642 212.999" stroke="white" stroke-opacity="0.3" stroke-width="0.5" stroke-linecap="round" stroke-linejoin="round"/>
<path d="M-32.9319 212.999L-9.85098 152.733L6.78421 109.294L19.3565 76.4914L29.1845 50.8368L37.0766 30.2444L43.5436 13.3326L48.9683 -0.792244L53.542 -12.7691L57.4987 -23.0648L60.9236 -31.9998" stroke="white" stroke-opacity="0.3" stroke-width="0.5" stroke-linecap="round" stroke-linejoin="round"/>
<path d="M142.89 -31.9998L145.251 -23.0648L147.974 -12.7691L151.144 -0.792244L154.888 13.3326L159.355 30.2444L164.801 50.8368L171.587 76.4914L180.266 109.294L191.754 152.733L207.708 212.999" stroke="white" stroke-opacity="0.3" stroke-width="0.5" stroke-linecap="round" stroke-linejoin="round"/>
<path d="M101.896 -31.9998L101.365 -23.0648L100.769 -12.7691L100.046 -0.792244L99.216 13.3326L98.2162 30.2444L96.9822 50.8368L95.4719 76.4914L93.536 109.294L90.9621 152.733L87.3882 212.999" stroke="white" stroke-opacity="0.3" stroke-width="0.5" stroke-linecap="round" stroke-linejoin="round"/>
</g>
<path d="M115.518 90.4965L107.966 92.9559M119.203 52.0437L122.484 50.9945L125.571 47.9524L127.958 44.864L129.603 41.8051L130.487 38.8454L130.612 36.0503L129.996 33.477L128.675 31.1738L126.698 29.181L124.123 27.5301L121.015 26.2445L117.45 25.3389L113.505 24.8216L109.257 24.695L104.79 24.9546L100.185 25.5901L95.523 26.5865L90.8863 27.9228L86.3533 29.5778L82.0042 31.5221L77.913 33.724L74.1559 36.1474L70.7857 34.6148L68.1492 34.7204L65.1004 37.0573L63.7895 38.0622L61.3412 40.3527L60.0155 41.5918L57.7257 43.8971L56.4487 45.3981L54.3217 47.8997L51.719 51.9867L49.998 56.0842L49.1629 59.065L48.833 60.2409L48.0042 64.5327L48.2305 68.6682L49.554 72.5504L51.996 76.0822L55.5523 79.1623L60.1826 81.6976L65.8129 83.5997L72.3355 84.7967L79.6023 85.2315L87.4337 84.8705L95.6223 83.7095L103.94 81.7673L112.15 79.0947L120.017 75.7677L127.322 71.8833L133.868 67.562L139.488 62.9283L144.057 58.1172M101.589 21.197L95.6096 22.4847L95.2312 22.5945L89.6664 24.2031L83.8563 26.3205L78.2703 28.8052M57.4467 50.5828L56.9033 53.7937L57.1803 56.8569L58.3029 59.7026L60.2735 62.2591L63.0791 64.4567L66.6798 66.2321L71.012 67.5282L75.989 68.2988L81.4989 68.512L87.4083 68.151L93.5694 67.2158L99.8192 65.7233L105.993 63.7115L111.924 61.2352L117.455 58.362L122.444 55.1723M76.877 62.6792L76.2554 61.3386L75.249 60.3127L72.8556 57.8765L72.3567 57.6591L68.09 55.8077L62.6077 55.4446L57.1803 56.8548L52.5796 59.8419M135.47 79.7301L136.46 76.8295L135.912 72.5779L133.866 67.5599L130.599 62.506L126.595 58.1657L122.446 55.168M140.705 31.1147L135.217 31.4145L129.992 33.477L125.774 37.0024L123.144 41.4821L122.442 46.2826M140.636 75.3602L144.839 70.8004L146.454 67.3425L149.807 62.4406L151.991 57.6063L153 52.9535L152.926 48.3134L150.784 43.8929L146.837 40.321L141.629 38.117M141.629 38.117L135.904 37.602L130.479 38.8433L126.707 41.2646L126.117 41.6425L123.761 45.0624L123.402 45.586M141.629 38.117L140.602 42.0141L138.553 46.0673L135.498 50.1796L131.483 54.2476L126.586 58.1657L120.92 61.8221L114.621 65.1153L107.858 67.9504L100.811 70.2452L93.6751 71.9382L86.6472 72.9853L79.9153 73.3674L73.6548 73.0866L68.016 72.1641L63.1278 70.642M141.629 38.117L141.65 34.4586L140.701 31.1126M75.0629 61.3407L70.5468 59.7553L65.3753 60.0636L60.2692 62.2548L55.9582 66.0378M55.9582 66.0378L53.0616 70.8785M55.9582 66.0378L53.7847 63.0993L52.5774 59.8419M55.9582 66.0378L59.0852 68.5774L63.1278 70.642M85.256 51.9107L83.7696 47.6337L81.1542 43.1561L77.7819 39.1304L74.1475 36.1432M144.835 70.7962L147.993 66.1687L149.805 62.4385L149.643 57.9272M149.643 57.9272L147.482 53.2575L143.602 49.1009L138.555 46.0652L133.075 44.5874L127.952 44.8598L123.897 46.8083M149.643 57.9272L146.194 62.9071L141.587 67.8365L135.91 72.5779L129.29 76.9942L121.895 80.9545L113.924 84.3407L105.6 87.0491L97.1637 89.004L88.8566 90.1566L80.909 90.4838L73.5322 89.9941M149.643 57.9272L151.888 53.0232L152.924 48.3113L152.778 43.895L151.505 39.8629L150.63 38.0854L149.444 35.6767L147.179 32.2019L143.97 29.2232L140.568 26.5527L136.752 24.258L133.959 23.1666L132.229 22.491L129.03 21.7247L127.11 21.2645L123.895 20.7536L118.757 20.1288L113.258 20.0021L111.065 21.4714M128.269 24.6232L124.117 27.5259L120.827 31.8008L118.873 36.8378L118.526 41.9148L120.267 43.1456L121.584 44.6085L122.44 46.2784L122.734 47.7477L122.7 47.8216M121.774 49.5104L121.802 49.4619L122 49.1811L122.165 49.0291L122.482 48.6216L122.675 48.3768L122.795 48.2227L123.899 46.8061L125.332 44.1842L126.121 41.6383L126.265 39.2254L125.774 36.9961L124.679 34.9927L123.015 33.2511L120.831 31.8008L118.182 30.6629L115.129 29.8544L111.74 29.3815L108.084 29.2485L104.232 29.4533L100.255 29.9895L96.227 30.8424L92.2183 31.995L88.3005 33.4263L84.5455 35.113L81.021 37.0256L77.7904 39.1304L74.9192 41.3913L72.4645 43.7683L70.4813 46.2193L69.0161 48.6977L68.1112 51.1549L67.7961 53.5404L68.0942 55.8035L69.0161 57.8913L70.5553 59.7532L72.6949 61.3429L76.1729 62.4744L76.9003 62.7108L76.9616 62.7319M144.059 58.1151L140.314 53.6523L135.506 50.1775L130.343 48.1889L125.569 47.9482L122.852 49.0417L122.298 49.2655L121.844 49.4492M78.6107 63.5362L74.7204 64.5179L71.012 67.5198L68.0224 72.162L66.1977 77.7943L65.8129 83.5976L66.9145 88.7253L69.3205 92.4534L72.6632 94.2943M106.088 48.571L102.16 49.3669L98.2567 50.4773L94.451 51.879L90.8081 53.551M79.2619 61.7165L79.5156 57.7667L77.9701 53.4686L74.8135 49.4239L70.477 46.2193L65.5825 44.3193L60.8359 43.9879L56.9054 45.2503L54.3196 47.8997M113.264 20L107.505 20.361L101.587 21.1949L100.652 22.5248L100.181 25.5901L100.251 29.9937L100.862 35.1109L101.927 40.1922L103.289 44.4945L104.743 47.412L106.086 48.5752L109.97 48.1087L113.74 47.982M147.186 32.2061L143.581 29.352L138.845 28.1444L133.629 28.7778L128.671 31.1759L124.677 35.0011L122.205 39.7025L121.584 44.6149L122.315 47.1439L122.577 48.0517M77.1878 62.8438L77.173 62.8058L76.8622 61.9572L75.9573 59.4851L75.5387 59.0418L72.5575 55.8858L67.7898 53.5446L62.3116 52.81L56.9012 53.7937L52.3258 56.3523L49.2221 60.1121L48 64.5348M128.269 24.6295L131.288 26.5042L133.627 28.7778L135.215 31.4166L135.991 34.3784L135.908 37.6062L134.94 41.0366L133.077 44.5938L130.341 48.1952L126.774 51.7523L122.446 55.1723L118.755 53.9183L114.473 56.6394L109.739 59.0883L104.672 61.1993L99.4006 62.9156L94.062 64.1949L88.7953 65.0034L83.7337 65.3264L79.004 65.1618L74.7183 64.5221L70.9697 63.4328L67.8384 61.9318L63.077 64.4524L59.0874 68.5795L56.4508 73.7305L55.5459 79.1623L56.4868 84.0979L61.1911 86.7346M61.1911 86.7346L63.7219 90.4712L67.3817 92.4175L69.8618 93.3L72.659 94.2964L78.7397 95.5081L85.4864 96L92.7342 95.7382L100.293 94.7186L107.955 92.958L108.336 92.8419L115.133 90.6295L115.507 90.4986L122.74 87.4122L129.453 83.7876L135.466 79.7301L140.634 75.3602L141.974 72.1831L146.452 67.3425L146.194 62.9114L144.052 58.1193L147.484 53.2618L149.729 48.4823L150.784 43.895L150.672 39.599L149.446 35.6788L145.678 32.6135L143.579 29.3499L140.572 26.5527L136.143 25.5901L132.69 23.4938L128.269 24.6274L124.649 23.1771L120.516 22.1638L115.958 21.596L111.065 21.4714M61.1911 86.7346L60.1762 81.6955L60.8507 76.0611L63.1278 70.642M61.1911 86.7346L66.9102 88.7253L73.5322 89.9941M111.065 21.4714L105.932 21.7859L100.648 22.5269L95.3052 23.6753L89.992 25.2101L84.7971 27.1037L79.8074 29.3266L75.1074 31.843L70.7815 34.6148L66.9102 37.5956L63.5697 40.739L60.8359 43.99L58.7744 47.2917L57.4467 50.5807L52.9961 52.7023L52.3258 56.3502L52.5796 59.844L49.4546 63.9796L50.7296 67.6L53.0658 70.8806L51.9939 76.0822L52.8756 80.9081L56.4889 84.1L59.1106 87.8556L63.724 90.4733L69.3184 92.4577L75.786 93.7327L82.9789 94.2415L90.7193 93.9502L98.8043 92.8482L107.008 90.9567L115.097 88.3242L122.844 85.0246L130.028 81.1551L136.46 76.8316L141.976 72.1831L141.589 67.8386L139.485 62.9283L135.946 58.1636L131.489 54.2476L126.772 51.7481L122.478 50.9945L118.753 53.9141L116.019 54.5263L113.543 56.0969L112.378 56.8358L108.361 58.913L104.065 60.7011L99.5972 62.1556L95.0726 63.2407L90.603 63.9289L86.3004 64.2076L82.2706 64.0746L78.6995 63.551L78.6276 63.532L78.3549 63.3885L78.1054 63.3336L77.3041 63.1647L77.0715 63.0993L75.3885 62.6179L70.9676 63.4307L66.6756 66.2257L63.1278 70.642M111.065 21.4714L109.247 24.6971L108.076 29.2527L107.731 34.4924L108.264 39.6497L109.591 43.9794L111.509 46.8779L113.735 47.9799L117.319 48.1994L120.552 48.7399L120.647 48.7673L121.859 49.1346L121.956 49.1811M73.5322 89.9941L72.3313 84.7945L72.3736 78.8688L73.6569 73.0866L75.9848 68.2945L79.004 65.1596L82.2727 64.0746M73.5322 89.9941L75.7839 93.7285L78.7418 95.506M122.085 48.9446L121.88 48.7082L119.812 46.3185L118.524 41.9169L116.404 40.9395L113.951 40.2302L111.219 39.7996L108.266 39.6497L105.147 39.7827L101.925 40.1922L98.6606 40.8678L95.413 41.7966L92.2416 42.9598L89.2076 44.3383L86.366 45.9068L83.7717 47.6358L81.4756 49.4956L79.5262 51.4526L77.9659 53.4686L76.8326 55.5058L78.3951 59.8166L78.1118 63.2745M152.782 43.895L151.423 41.1211L150.674 39.5948L146.79 36.2889L141.655 34.4565L135.993 34.372L130.61 36.0461L126.265 39.2296L123.732 43.1772L123.552 43.4559L123.157 45.9491L123.019 46.8188M76.1095 62.1071L75.4837 61.4864L73.6929 59.7068L69.0097 57.8934L63.6288 57.8807L58.3008 59.6983L53.7868 63.0993L50.7296 67.5979L49.5498 72.5504L50.387 77.2581M132.236 22.4889L128.576 21.8746L123.899 20.7515L120.518 22.1617L117.444 25.3389L115.125 29.8565L113.902 35.0729L113.953 40.2323L115.256 44.5959L117.603 47.5661L120.554 48.742L120.649 48.7694M91.2035 51.8241L90.6537 48.6111L89.2118 44.3362L87.0721 39.6075L84.5434 35.1151L81.9999 31.52L79.8095 29.3245L78.2703 28.801L73.0036 31.615L69.3396 33.9541L68.1471 34.7161M81.52 59.8651L82.9873 57.3931V53.7747L81.4798 49.4935L78.6572 45.1553L74.9171 41.3913L70.8026 38.7483L66.9124 37.5935L63.7895 38.0601M86.3068 64.2097L83.7379 65.3243L81.4989 68.5099L79.9216 73.3716L79.2535 79.2319L79.6023 85.2336L80.9132 90.488L82.981 94.2415L85.4928 96M74.1559 36.1453L70.8048 38.7504L67.9272 41.4905L65.5867 44.3214L63.8403 47.1882L62.7366 50.0361L62.318 52.8079L62.6119 55.4446L63.6352 57.8828L65.3858 60.0657L67.8447 61.9339L72.6949 61.3471L75.3991 62.62M118.77 20.1288L115.968 21.596L113.507 24.8238L111.746 29.3857L110.949 34.6317L111.232 39.7996L112.545 44.1462L114.683 47.07L117.33 48.2016M90.6136 63.9331L88.8037 65.0034L87.4146 68.151L86.6598 72.9916L86.6641 78.854L87.4379 84.8769L88.8651 90.1651L90.7256 93.9544L92.7427 95.7446M91.2077 51.8305L88.1864 53.5193L85.4293 55.3876L84.2834 57.5873M95.079 63.2491L94.0683 64.1991L93.5736 67.22L93.6856 71.9488L94.4024 77.731L95.6266 83.7179L97.1742 89.0166L98.8128 92.8567L100.305 94.727M99.6099 62.1662L99.4111 62.9219L99.8298 65.7296L100.826 70.2557L102.268 75.8796L103.946 81.7757L105.612 87.0597L107.018 90.9651L107.97 92.9643M107.515 20.3694L105.946 21.7923L104.796 24.9631L104.238 29.466L104.365 34.6613L105.16 39.789L106.502 44.104L108.19 47.0004L109.978 48.1129M87.4041 55.4699L88.1906 53.5193L87.8417 50.1859L86.3786 45.9111L83.9916 41.3026L81.0253 37.0341L77.9172 33.7282L75.1179 31.8472L73.0121 31.6213M129.466 83.7918L130.039 81.1572L129.303 77.0005L127.33 71.8876L124.396 66.5656L120.935 61.8284L117.463 58.3642L114.48 56.6415L112.387 56.8442M76.2617 61.3429L75.9658 59.4894L76.1645 57.5324L72.8049 53.7895L68.1112 51.1655L62.7387 50.0445L57.453 50.5892M95.616 22.4932L95.3158 23.6838L95.5251 26.5949L96.2291 30.855L97.3307 35.8603L98.6711 40.8762L100.052 45.168L101.272 48.1298L102.166 49.3816M94.4573 51.8938L94.4404 50.3569L93.6772 47.2474L92.2564 42.9704L90.3747 38.1318L88.3069 33.4411L86.3596 29.5884L84.8098 27.1142L83.8647 26.3289M122.753 87.4228L122.852 85.0331L121.905 80.9672L120.023 75.7761L117.474 70.2198L114.636 65.1259L111.932 61.2415L109.748 59.0946L108.369 58.9236M85.2665 51.9233L82.9915 53.7895L81.0612 55.7549L79.5199 57.7815L78.4014 59.8313L77.7375 61.8643L77.6297 63.0613M53.0701 70.8933L56.4572 73.7432L60.857 76.0759L66.1998 77.8112L72.3778 78.8836L79.2556 79.2425L86.662 78.8604L94.4024 77.7331L102.263 75.8817L110.025 73.3547L117.469 70.2198L124.389 66.5719L130.601 62.5166L135.95 58.1742L140.314 53.665L143.608 49.1135L145.788 44.6339L146.843 40.3316L146.792 36.3015L145.682 32.622L140.708 31.1231L138.847 28.1508L136.147 25.5985L131.293 26.5105L126.696 29.1894L123.015 33.2637L120.772 38.1529L120.271 43.1561L121.554 47.5788L122.349 48.4823M136.76 24.2664L132.694 23.5022L128.58 21.8852L124.656 23.1856L121.015 26.255L118.184 30.6777L116.575 35.8223L116.414 40.9501L117.706 45.3326L119.82 46.329L121.558 47.5809L122.355 48.4781M77.6255 63.0549L77.7375 61.8601L76.1624 57.5345L76.839 55.5164L73.5618 51.6236L69.014 48.7082L63.8382 47.1946L58.7766 47.298L54.5459 48.9848L51.719 51.9951M89.6685 24.2073L89.9983 25.2143L90.8863 27.9291L92.2183 32.0056L93.8083 36.8673L95.4215 41.803L96.8211 46.0863L97.8106 49.1114M97.8106 49.1114L98.261 50.4878M97.8106 49.1114L101.27 48.1277L104.75 47.4205L108.188 47.0046L111.52 46.8885L114.681 47.0785L117.609 47.5746L120.245 48.3725L121.341 48.894L121.865 49.1452M97.8106 49.1114L94.4362 50.3548L91.2077 51.8326L90.8123 53.5615L87.402 55.472L84.2855 57.5894L81.5242 59.8778L79.2344 62.2168L79.1752 62.2949L78.4141 63.3061L78.3634 63.4011M115.518 90.507L115.103 88.3327L113.932 84.3512L112.154 79.1031L110.027 73.3526L107.868 67.961L105.999 63.7178L104.678 61.2056L104.071 60.7117M151.998 57.6147L151.896 53.0338L149.736 48.4887L145.79 44.6318L140.61 42.0246L134.942 41.043L129.601 41.8135L125.334 44.199L123.315 46.9919L123.193 47.1629L122.744 47.7836M116.023 54.5368L117.397 53.4623L119.201 52.0542L121.778 49.5273L121.846 49.4619L122.004 49.198L122.091 48.9573L122.351 48.4844V48.4802L122.584 48.0622L122.706 47.8385L122.736 47.7435L123.024 46.8336L123.413 45.6007L123.556 43.4707L123.15 41.4947L122.214 39.713L120.778 38.1572L118.884 36.8546L116.577 35.8266L113.913 35.0877L110.949 34.6465L107.744 34.5072L104.363 34.6697L100.87 35.1257L97.3307 35.8667L93.8104 36.8758L90.3704 38.1361L87.0764 39.6243L83.9874 41.3132L81.1648 43.1751L78.6615 45.1743L76.5303 47.2769L74.8177 49.4429L73.5639 51.632L72.8049 53.8001L72.566 55.9027L72.862 57.8934L73.6992 59.7279L75.0735 61.3619L76.1159 62.1303L76.5281 62.4343L76.8855 62.6981L76.9658 62.7573L77.1963 62.8649L77.6276 63.0676H77.6318L78.116 63.3589L78.3295 63.4814L78.6382 63.5573L78.7101 63.5764M79.1774 62.3097L79.2366 62.2316L80.9238 59.5463L81.0633 55.7655L79.5368 51.4758L76.5324 47.2832L72.4687 43.7937L67.9314 41.5137L63.5781 40.7601L60.0197 41.613L56.9117 45.2735L54.5501 48.9995L53.0045 52.7234L50.0022 56.1074L49.2305 60.1332L49.4631 64.0007L48.2347 68.6914L49.0423 73.2809L50.3955 77.2834L52.8819 80.9313L55.5607 84.7164L59.1191 87.8788M120.25 48.3873L117.71 45.3453L115.266 44.617L112.545 44.1673L109.604 44.0006L106.502 44.1188L103.297 44.5157L100.052 45.1806L96.8232 46.1011L93.673 47.26L90.6601 48.6364L87.8396 50.2049L85.2665 51.9381L85.4314 55.4066L82.9937 57.4226L80.9238 59.5485L79.2683 61.7461L78.6932 62.8122L78.4162 63.323" stroke="white" stroke-width="1.08501" stroke-linecap="round" stroke-linejoin="round"/>
<defs>
<clipPath id="clip0_317_473">
<rect width="200" height="115" fill="white"/>
</clipPath>
</defs>
</svg>
