<svg width="200" height="158" viewBox="0 0 200 158" fill="none" xmlns="http://www.w3.org/2000/svg">
<g clip-path="url(#clip0_317_493)">
<path d="M0 4C0 1.79086 1.79086 0 4 0H196C198.209 0 200 1.79086 200 4V154C200 156.209 198.209 158 196 158H4C1.79086 158 0 156.209 0 154V4Z" fill="#0D0D0D"/>
<path d="M24 26C24 21.5817 27.5817 18 32 18H168C172.418 18 176 21.5817 176 26V90C176 94.4183 172.418 98 168 98H32C27.5817 98 24 94.4183 24 90V26Z" fill="#1F1F1F"/>
<g clip-path="url(#clip1_317_493)">
<path d="M58 36H60V48H58V36ZM61.5 42L70 48V36L61.5 42Z" fill="white"/>
</g>
<g clip-path="url(#clip2_317_493)">
<path d="M96 35V49L107 42L96 35Z" fill="white"/>
</g>
<g clip-path="url(#clip3_317_493)">
<path d="M130 48L138.5 42L130 36V48ZM140 36V48H142V36H140Z" fill="white"/>
</g>
<rect x="176" y="67" width="152" height="0.999937" transform="rotate(-180 176 67)" fill="white" fill-opacity="0.1"/>
<g clip-path="url(#clip4_317_493)">
<path d="M24 75C24 70.5817 27.5817 67 32 67H168C172.418 67 176 70.5817 176 75V90C176 94.4183 172.418 98 168 98H32C27.5817 98 24 94.4183 24 90V75Z" fill="#1F1F1F"/>
<rect x="24" y="75" width="62" height="23" fill="#1F1F1F"/>
<path d="M35.0098 87.12C34.5564 87.12 34.1631 87.04 33.8298 86.88C33.4964 86.7133 33.2198 86.4767 32.9998 86.17C32.7864 85.8633 32.6264 85.4867 32.5198 85.04C32.4198 84.5933 32.3698 84.0833 32.3698 83.51C32.3698 82.9433 32.4198 82.4367 32.5198 81.99C32.6264 81.5367 32.7864 81.1567 32.9998 80.85C33.2198 80.5433 33.4964 80.31 33.8298 80.15C34.1631 79.9833 34.5564 79.9 35.0098 79.9C35.9164 79.9 36.5831 80.2167 37.0098 80.85C37.4364 81.4833 37.6498 82.37 37.6498 83.51C37.6498 84.65 37.4364 85.5367 37.0098 86.17C36.5831 86.8033 35.9164 87.12 35.0098 87.12ZM35.0098 86.05C35.2431 86.05 35.4398 86.0067 35.5998 85.92C35.7598 85.8267 35.8864 85.6967 35.9798 85.53C36.0798 85.3633 36.1498 85.16 36.1898 84.92C36.2364 84.6733 36.2598 84.4 36.2598 84.1V82.91C36.2598 82.31 36.1664 81.8367 35.9798 81.49C35.7998 81.1433 35.4764 80.97 35.0098 80.97C34.5431 80.97 34.2164 81.1433 34.0298 81.49C33.8498 81.8367 33.7598 82.31 33.7598 82.91V84.11C33.7598 84.71 33.8498 85.1833 34.0298 85.53C34.2164 85.8767 34.5431 86.05 35.0098 86.05ZM41.5059 87.12C41.0525 87.12 40.6592 87.04 40.3259 86.88C39.9925 86.7133 39.7159 86.4767 39.4959 86.17C39.2825 85.8633 39.1225 85.4867 39.0159 85.04C38.9159 84.5933 38.8659 84.0833 38.8659 83.51C38.8659 82.9433 38.9159 82.4367 39.0159 81.99C39.1225 81.5367 39.2825 81.1567 39.4959 80.85C39.7159 80.5433 39.9925 80.31 40.3259 80.15C40.6592 79.9833 41.0525 79.9 41.5059 79.9C42.4125 79.9 43.0792 80.2167 43.5059 80.85C43.9325 81.4833 44.1459 82.37 44.1459 83.51C44.1459 84.65 43.9325 85.5367 43.5059 86.17C43.0792 86.8033 42.4125 87.12 41.5059 87.12ZM41.5059 86.05C41.7392 86.05 41.9359 86.0067 42.0959 85.92C42.2559 85.8267 42.3825 85.6967 42.4759 85.53C42.5759 85.3633 42.6459 85.16 42.6859 84.92C42.7325 84.6733 42.7559 84.4 42.7559 84.1V82.91C42.7559 82.31 42.6625 81.8367 42.4759 81.49C42.2959 81.1433 41.9725 80.97 41.5059 80.97C41.0392 80.97 40.7125 81.1433 40.5259 81.49C40.3459 81.8367 40.2559 82.31 40.2559 82.91V84.11C40.2559 84.71 40.3459 85.1833 40.5259 85.53C40.7125 85.8767 41.0392 86.05 41.5059 86.05ZM48.002 87.11C47.6553 87.11 47.4086 87.0367 47.262 86.89C47.1153 86.7433 47.042 86.5633 47.042 86.35V86.05C47.042 85.8367 47.1153 85.6567 47.262 85.51C47.4086 85.3633 47.6553 85.29 48.002 85.29C48.3486 85.29 48.5953 85.3633 48.742 85.51C48.8886 85.6567 48.962 85.8367 48.962 86.05V86.35C48.962 86.5633 48.8886 86.7433 48.742 86.89C48.5953 87.0367 48.3486 87.11 48.002 87.11ZM48.002 83.56C47.6553 83.56 47.4086 83.4867 47.262 83.34C47.1153 83.1933 47.042 83.0133 47.042 82.8V82.5C47.042 82.2867 47.1153 82.1067 47.262 81.96C47.4086 81.8133 47.6553 81.74 48.002 81.74C48.3486 81.74 48.5953 81.8133 48.742 81.96C48.8886 82.1067 48.962 82.2867 48.962 82.5V82.8C48.962 83.0133 48.8886 83.1933 48.742 83.34C48.5953 83.4867 48.3486 83.56 48.002 83.56ZM54.498 87.12C54.0447 87.12 53.6514 87.04 53.318 86.88C52.9847 86.7133 52.708 86.4767 52.488 86.17C52.2747 85.8633 52.1147 85.4867 52.008 85.04C51.908 84.5933 51.858 84.0833 51.858 83.51C51.858 82.9433 51.908 82.4367 52.008 81.99C52.1147 81.5367 52.2747 81.1567 52.488 80.85C52.708 80.5433 52.9847 80.31 53.318 80.15C53.6514 79.9833 54.0447 79.9 54.498 79.9C55.4047 79.9 56.0714 80.2167 56.498 80.85C56.9247 81.4833 57.138 82.37 57.138 83.51C57.138 84.65 56.9247 85.5367 56.498 86.17C56.0714 86.8033 55.4047 87.12 54.498 87.12ZM54.498 86.05C54.7314 86.05 54.928 86.0067 55.088 85.92C55.248 85.8267 55.3747 85.6967 55.468 85.53C55.568 85.3633 55.638 85.16 55.678 84.92C55.7247 84.6733 55.748 84.4 55.748 84.1V82.91C55.748 82.31 55.6547 81.8367 55.468 81.49C55.288 81.1433 54.9647 80.97 54.498 80.97C54.0314 80.97 53.7047 81.1433 53.518 81.49C53.338 81.8367 53.248 82.31 53.248 82.91V84.11C53.248 84.71 53.338 85.1833 53.518 85.53C53.7047 85.8767 54.0314 86.05 54.498 86.05ZM60.9941 87.12C60.5408 87.12 60.1475 87.04 59.8141 86.88C59.4808 86.7133 59.2041 86.4767 58.9841 86.17C58.7708 85.8633 58.6108 85.4867 58.5041 85.04C58.4041 84.5933 58.3541 84.0833 58.3541 83.51C58.3541 82.9433 58.4041 82.4367 58.5041 81.99C58.6108 81.5367 58.7708 81.1567 58.9841 80.85C59.2041 80.5433 59.4808 80.31 59.8141 80.15C60.1475 79.9833 60.5408 79.9 60.9941 79.9C61.9008 79.9 62.5675 80.2167 62.9941 80.85C63.4208 81.4833 63.6341 82.37 63.6341 83.51C63.6341 84.65 63.4208 85.5367 62.9941 86.17C62.5675 86.8033 61.9008 87.12 60.9941 87.12ZM60.9941 86.05C61.2275 86.05 61.4241 86.0067 61.5841 85.92C61.7441 85.8267 61.8708 85.6967 61.9641 85.53C62.0641 85.3633 62.1341 85.16 62.1741 84.92C62.2208 84.6733 62.2441 84.4 62.2441 84.1V82.91C62.2441 82.31 62.1508 81.8367 61.9641 81.49C61.7841 81.1433 61.4608 80.97 60.9941 80.97C60.5275 80.97 60.2008 81.1433 60.0141 81.49C59.8341 81.8367 59.7441 82.31 59.7441 82.91V84.11C59.7441 84.71 59.8341 85.1833 60.0141 85.53C60.2008 85.8767 60.5275 86.05 60.9941 86.05Z" fill="white" fill-opacity="0.6"/>
<rect x="49" y="92" width="6" height="1" transform="rotate(90 49 92)" fill="white" fill-opacity="0.2"/>
<rect x="76" y="75" width="94" height="23" fill="#1F1F1F"/>
<path d="M110.01 87.12C109.556 87.12 109.163 87.04 108.83 86.88C108.496 86.7133 108.22 86.4767 108 86.17C107.786 85.8633 107.626 85.4867 107.52 85.04C107.42 84.5933 107.37 84.0833 107.37 83.51C107.37 82.9433 107.42 82.4367 107.52 81.99C107.626 81.5367 107.786 81.1567 108 80.85C108.22 80.5433 108.496 80.31 108.83 80.15C109.163 79.9833 109.556 79.9 110.01 79.9C110.916 79.9 111.583 80.2167 112.01 80.85C112.436 81.4833 112.65 82.37 112.65 83.51C112.65 84.65 112.436 85.5367 112.01 86.17C111.583 86.8033 110.916 87.12 110.01 87.12ZM110.01 86.05C110.243 86.05 110.44 86.0067 110.6 85.92C110.76 85.8267 110.886 85.6967 110.98 85.53C111.08 85.3633 111.15 85.16 111.19 84.92C111.236 84.6733 111.26 84.4 111.26 84.1V82.91C111.26 82.31 111.166 81.8367 110.98 81.49C110.8 81.1433 110.476 80.97 110.01 80.97C109.543 80.97 109.216 81.1433 109.03 81.49C108.85 81.8367 108.76 82.31 108.76 82.91V84.11C108.76 84.71 108.85 85.1833 109.03 85.53C109.216 85.8767 109.543 86.05 110.01 86.05ZM116.506 87.12C116.053 87.12 115.659 87.04 115.326 86.88C114.993 86.7133 114.716 86.4767 114.496 86.17C114.283 85.8633 114.123 85.4867 114.016 85.04C113.916 84.5933 113.866 84.0833 113.866 83.51C113.866 82.9433 113.916 82.4367 114.016 81.99C114.123 81.5367 114.283 81.1567 114.496 80.85C114.716 80.5433 114.993 80.31 115.326 80.15C115.659 79.9833 116.053 79.9 116.506 79.9C117.413 79.9 118.079 80.2167 118.506 80.85C118.933 81.4833 119.146 82.37 119.146 83.51C119.146 84.65 118.933 85.5367 118.506 86.17C118.079 86.8033 117.413 87.12 116.506 87.12ZM116.506 86.05C116.739 86.05 116.936 86.0067 117.096 85.92C117.256 85.8267 117.383 85.6967 117.476 85.53C117.576 85.3633 117.646 85.16 117.686 84.92C117.733 84.6733 117.756 84.4 117.756 84.1V82.91C117.756 82.31 117.663 81.8367 117.476 81.49C117.296 81.1433 116.973 80.97 116.506 80.97C116.039 80.97 115.713 81.1433 115.526 81.49C115.346 81.8367 115.256 82.31 115.256 82.91V84.11C115.256 84.71 115.346 85.1833 115.526 85.53C115.713 85.8767 116.039 86.05 116.506 86.05ZM123.002 87.11C122.655 87.11 122.409 87.0367 122.262 86.89C122.115 86.7433 122.042 86.5633 122.042 86.35V86.05C122.042 85.8367 122.115 85.6567 122.262 85.51C122.409 85.3633 122.655 85.29 123.002 85.29C123.349 85.29 123.595 85.3633 123.742 85.51C123.889 85.6567 123.962 85.8367 123.962 86.05V86.35C123.962 86.5633 123.889 86.7433 123.742 86.89C123.595 87.0367 123.349 87.11 123.002 87.11ZM123.002 83.56C122.655 83.56 122.409 83.4867 122.262 83.34C122.115 83.1933 122.042 83.0133 122.042 82.8V82.5C122.042 82.2867 122.115 82.1067 122.262 81.96C122.409 81.8133 122.655 81.74 123.002 81.74C123.349 81.74 123.595 81.8133 123.742 81.96C123.889 82.1067 123.962 82.2867 123.962 82.5V82.8C123.962 83.0133 123.889 83.1933 123.742 83.34C123.595 83.4867 123.349 83.56 123.002 83.56ZM131.998 87H127.078V85.78L129.318 83.87C129.691 83.55 129.968 83.26 130.148 83C130.328 82.7333 130.418 82.45 130.418 82.15V82.05C130.418 81.7167 130.325 81.4633 130.138 81.29C129.951 81.1167 129.691 81.03 129.358 81.03C128.991 81.03 128.711 81.13 128.518 81.33C128.325 81.53 128.185 81.7767 128.098 82.07L126.958 81.64C127.031 81.4133 127.135 81.1967 127.268 80.99C127.408 80.7767 127.578 80.59 127.778 80.43C127.985 80.27 128.228 80.1433 128.508 80.05C128.788 79.95 129.108 79.9 129.468 79.9C129.841 79.9 130.171 79.9533 130.458 80.06C130.751 80.16 130.998 80.3033 131.198 80.49C131.398 80.67 131.548 80.8867 131.648 81.14C131.755 81.3933 131.808 81.67 131.808 81.97C131.808 82.2567 131.761 82.52 131.668 82.76C131.581 83 131.458 83.23 131.298 83.45C131.138 83.6633 130.948 83.87 130.728 84.07C130.515 84.27 130.281 84.47 130.028 84.67L128.508 85.9H131.998V87ZM135.994 87.12C135.541 87.12 135.147 87.04 134.814 86.88C134.481 86.7133 134.204 86.4767 133.984 86.17C133.771 85.8633 133.611 85.4867 133.504 85.04C133.404 84.5933 133.354 84.0833 133.354 83.51C133.354 82.9433 133.404 82.4367 133.504 81.99C133.611 81.5367 133.771 81.1567 133.984 80.85C134.204 80.5433 134.481 80.31 134.814 80.15C135.147 79.9833 135.541 79.9 135.994 79.9C136.901 79.9 137.567 80.2167 137.994 80.85C138.421 81.4833 138.634 82.37 138.634 83.51C138.634 84.65 138.421 85.5367 137.994 86.17C137.567 86.8033 136.901 87.12 135.994 87.12ZM135.994 86.05C136.227 86.05 136.424 86.0067 136.584 85.92C136.744 85.8267 136.871 85.6967 136.964 85.53C137.064 85.3633 137.134 85.16 137.174 84.92C137.221 84.6733 137.244 84.4 137.244 84.1V82.91C137.244 82.31 137.151 81.8367 136.964 81.49C136.784 81.1433 136.461 80.97 135.994 80.97C135.527 80.97 135.201 81.1433 135.014 81.49C134.834 81.8367 134.744 82.31 134.744 82.91V84.11C134.744 84.71 134.834 85.1833 135.014 85.53C135.201 85.8767 135.527 86.05 135.994 86.05Z" fill="white" fill-opacity="0.6"/>
<rect x="124" y="92" width="6" height="1" transform="rotate(90 124 92)" fill="white" fill-opacity="0.2"/>
<rect x="160" y="75" width="94" height="23" fill="#1F1F1F"/>
</g>
<path d="M100 80L94 76L94 65L106 65L106 76L100 80Z" fill="#EE3A43"/>
<path d="M100 75L100 79" stroke="#0D0D0D" stroke-width="2"/>
<path d="M100 79L100 98" stroke="#EE3A43" stroke-width="2"/>
</g>
<defs>
<clipPath id="clip0_317_493">
<path d="M0 4C0 1.79086 1.79086 0 4 0H196C198.209 0 200 1.79086 200 4V154C200 156.209 198.209 158 196 158H4C1.79086 158 0 156.209 0 154V4Z" fill="white"/>
</clipPath>
<clipPath id="clip1_317_493">
<rect width="24" height="24" fill="white" transform="translate(52 30)"/>
</clipPath>
<clipPath id="clip2_317_493">
<rect width="24" height="24" fill="white" transform="translate(88 30)"/>
</clipPath>
<clipPath id="clip3_317_493">
<rect width="24" height="24" fill="white" transform="translate(124 30)"/>
</clipPath>
<clipPath id="clip4_317_493">
<path d="M24 75C24 70.5817 27.5817 67 32 67H168C172.418 67 176 70.5817 176 75V90C176 94.4183 172.418 98 168 98H32C27.5817 98 24 94.4183 24 90V75Z" fill="white"/>
</clipPath>
</defs>
</svg>
