<svg width="200" height="158" viewBox="0 0 200 158" fill="none" xmlns="http://www.w3.org/2000/svg">
<path d="M0 4C0 1.79086 1.79086 0 4 0H196C198.209 0 200 1.79086 200 4V154C200 156.209 198.209 158 196 158H4C1.79086 158 0 156.209 0 154V4Z" fill="#0D0D0D"/>
<path d="M17 22C17 18.6863 19.6863 16 23 16H178C181.314 16 184 18.6863 184 22V76C184 79.3137 181.314 82 178 82H23C19.6863 82 17 79.3137 17 76V22Z" fill="#1F1F1F"/>
<path d="M154.5 40C154.5 41.3807 155.619 42.5 157 42.5C158.381 42.5 159.5 41.3807 159.5 40C159.5 38.6193 158.381 37.5 157 37.5C155.619 37.5 154.5 38.6193 154.5 40Z" fill="#1E43E2"/>
<path d="M154.5 40C154.5 41.3807 155.619 42.5 157 42.5C158.381 42.5 159.5 41.3807 159.5 40C159.5 38.6193 158.381 37.5 157 37.5C155.619 37.5 154.5 38.6193 154.5 40Z" stroke="#0D0D0D"/>
<path d="M154.5 40C154.5 41.3807 155.619 42.5 157 42.5C158.381 42.5 159.5 41.3807 159.5 40C159.5 38.6193 158.381 37.5 157 37.5C155.619 37.5 154.5 38.6193 154.5 40Z" stroke="url(#paint0_linear_317_998)" stroke-opacity="0.2"/>
<path d="M144.413 60L143.741 57.864H140.765L140.105 60H138.497L141.305 51.624H143.273L146.057 60H144.413ZM142.277 53.064H142.217L141.149 56.508H143.357L142.277 53.064ZM149.787 60.144C149.323 60.144 148.911 60.068 148.551 59.916C148.191 59.764 147.887 59.544 147.639 59.256C147.399 58.968 147.215 58.624 147.087 58.224C146.959 57.816 146.895 57.36 146.895 56.856C146.895 56.352 146.959 55.9 147.087 55.5C147.215 55.1 147.399 54.76 147.639 54.48C147.887 54.192 148.191 53.972 148.551 53.82C148.911 53.668 149.323 53.592 149.787 53.592C150.419 53.592 150.939 53.732 151.347 54.012C151.763 54.292 152.063 54.68 152.247 55.176L150.987 55.74C150.915 55.476 150.779 55.26 150.579 55.092C150.387 54.916 150.123 54.828 149.787 54.828C149.355 54.828 149.031 54.964 148.815 55.236C148.607 55.508 148.503 55.864 148.503 56.304V57.444C148.503 57.884 148.607 58.24 148.815 58.512C149.031 58.776 149.355 58.908 149.787 58.908C150.155 58.908 150.439 58.816 150.639 58.632C150.839 58.44 150.995 58.204 151.107 57.924L152.283 58.488C152.075 59.04 151.759 59.456 151.335 59.736C150.911 60.008 150.395 60.144 149.787 60.144ZM155.544 60C155.016 60 154.612 59.864 154.332 59.592C154.06 59.312 153.924 58.916 153.924 58.404V54.96H153V53.736H153.48C153.712 53.736 153.868 53.684 153.948 53.58C154.036 53.468 154.08 53.304 154.08 53.088V52.02H155.46V53.736H156.744V54.96H155.46V58.776H156.648V60H155.544ZM158.964 52.824C158.644 52.824 158.412 52.752 158.268 52.608C158.132 52.464 158.064 52.28 158.064 52.056V51.816C158.064 51.592 158.132 51.408 158.268 51.264C158.412 51.12 158.644 51.048 158.964 51.048C159.276 51.048 159.504 51.12 159.648 51.264C159.792 51.408 159.864 51.592 159.864 51.816V52.056C159.864 52.28 159.792 52.464 159.648 52.608C159.504 52.752 159.276 52.824 158.964 52.824ZM158.196 53.736H159.732V60H158.196V53.736ZM162.976 60L160.888 53.736H162.4L163.276 56.436L163.888 58.668H163.972L164.584 56.436L165.436 53.736H166.9L164.8 60H162.976ZM170.484 60.144C170.02 60.144 169.604 60.068 169.236 59.916C168.876 59.756 168.568 59.536 168.312 59.256C168.064 58.968 167.872 58.624 167.736 58.224C167.6 57.816 167.532 57.36 167.532 56.856C167.532 56.36 167.596 55.912 167.724 55.512C167.86 55.112 168.052 54.772 168.3 54.492C168.548 54.204 168.852 53.984 169.212 53.832C169.572 53.672 169.98 53.592 170.436 53.592C170.924 53.592 171.348 53.676 171.708 53.844C172.068 54.012 172.364 54.24 172.596 54.528C172.828 54.816 173 55.152 173.112 55.536C173.232 55.912 173.292 56.316 173.292 56.748V57.252H169.128V57.408C169.128 57.864 169.256 58.232 169.512 58.512C169.768 58.784 170.148 58.92 170.652 58.92C171.036 58.92 171.348 58.84 171.588 58.68C171.836 58.52 172.056 58.316 172.248 58.068L173.076 58.992C172.82 59.352 172.468 59.636 172.02 59.844C171.58 60.044 171.068 60.144 170.484 60.144ZM170.46 54.744C170.052 54.744 169.728 54.88 169.488 55.152C169.248 55.424 169.128 55.776 169.128 56.208V56.304H171.696V56.196C171.696 55.764 171.588 55.416 171.372 55.152C171.164 54.88 170.86 54.744 170.46 54.744Z" fill="white"/>
<path d="M98.5 40C98.5 41.3807 99.6193 42.5 101 42.5C102.381 42.5 103.5 41.3807 103.5 40C103.5 38.6193 102.381 37.5 101 37.5C99.6193 37.5 98.5 38.6193 98.5 40Z" fill="#EE3A43"/>
<path d="M98.5 40C98.5 41.3807 99.6193 42.5 101 42.5C102.381 42.5 103.5 41.3807 103.5 40C103.5 38.6193 102.381 37.5 101 37.5C99.6193 37.5 98.5 38.6193 98.5 40Z" stroke="#0D0D0D"/>
<path d="M98.5 40C98.5 41.3807 99.6193 42.5 101 42.5C102.381 42.5 103.5 41.3807 103.5 40C103.5 38.6193 102.381 37.5 101 37.5C99.6193 37.5 98.5 38.6193 98.5 40Z" stroke="url(#paint1_linear_317_998)" stroke-opacity="0.2"/>
<path d="M91.3079 60V51.624H96.6959V53.028H92.8919V55.056H96.2039V56.46H92.8919V60H91.3079ZM102.385 60C102.049 60 101.781 59.904 101.581 59.712C101.389 59.512 101.269 59.248 101.221 58.92H101.149C101.045 59.328 100.833 59.636 100.513 59.844C100.193 60.044 99.7972 60.144 99.3252 60.144C98.6852 60.144 98.1932 59.976 97.8492 59.64C97.5052 59.304 97.3332 58.856 97.3332 58.296C97.3332 57.648 97.5652 57.168 98.0292 56.856C98.4932 56.536 99.1532 56.376 100.009 56.376H101.077V55.92C101.077 55.568 100.985 55.296 100.801 55.104C100.617 54.912 100.321 54.816 99.9132 54.816C99.5532 54.816 99.2612 54.896 99.0372 55.056C98.8212 55.208 98.6372 55.392 98.4852 55.608L97.5732 54.792C97.8052 54.432 98.1132 54.144 98.4972 53.928C98.8812 53.704 99.3892 53.592 100.021 53.592C100.869 53.592 101.513 53.784 101.953 54.168C102.393 54.552 102.613 55.104 102.613 55.824V58.776H103.237V60H102.385ZM99.8412 59.028C100.185 59.028 100.477 58.952 100.717 58.8C100.957 58.648 101.077 58.424 101.077 58.128V57.3H100.093C99.2932 57.3 98.8932 57.556 98.8932 58.068V58.272C98.8932 58.528 98.9732 58.72 99.1332 58.848C99.3012 58.968 99.5372 59.028 99.8412 59.028ZM105.368 52.824C105.048 52.824 104.816 52.752 104.672 52.608C104.536 52.464 104.468 52.28 104.468 52.056V51.816C104.468 51.592 104.536 51.408 104.672 51.264C104.816 51.12 105.048 51.048 105.368 51.048C105.68 51.048 105.908 51.12 106.052 51.264C106.196 51.408 106.268 51.592 106.268 51.816V52.056C106.268 52.28 106.196 52.464 106.052 52.608C105.908 52.752 105.68 52.824 105.368 52.824ZM104.6 53.736H106.136V60H104.6V53.736ZM109.573 60C109.045 60 108.657 59.868 108.409 59.604C108.161 59.34 108.037 58.968 108.037 58.488V51.12H109.573V58.776H110.401V60H109.573Z" fill="white"/>
<path d="M42.5 40C42.5 41.3807 43.6193 42.5 45 42.5C46.3807 42.5 47.5 41.3807 47.5 40C47.5 38.6193 46.3807 37.5 45 37.5C43.6193 37.5 42.5 38.6193 42.5 40Z" fill="#00CA71"/>
<path d="M42.5 40C42.5 41.3807 43.6193 42.5 45 42.5C46.3807 42.5 47.5 41.3807 47.5 40C47.5 38.6193 46.3807 37.5 45 37.5C43.6193 37.5 42.5 38.6193 42.5 40Z" stroke="#0D0D0D"/>
<path d="M42.5 40C42.5 41.3807 43.6193 42.5 45 42.5C46.3807 42.5 47.5 41.3807 47.5 40C47.5 38.6193 46.3807 37.5 45 37.5C43.6193 37.5 42.5 38.6193 42.5 40Z" stroke="url(#paint2_linear_317_998)" stroke-opacity="0.2"/>
<path d="M32.2435 60V51.624H36.0115C36.3955 51.624 36.7395 51.688 37.0435 51.816C37.3555 51.936 37.6195 52.112 37.8355 52.344C38.0515 52.568 38.2155 52.84 38.3275 53.16C38.4395 53.48 38.4955 53.832 38.4955 54.216C38.4955 54.608 38.4395 54.964 38.3275 55.284C38.2155 55.596 38.0515 55.868 37.8355 56.1C37.6195 56.324 37.3555 56.5 37.0435 56.628C36.7395 56.748 36.3955 56.808 36.0115 56.808H33.8275V60H32.2435ZM33.8275 55.44H35.8675C36.1715 55.44 36.4115 55.36 36.5875 55.2C36.7635 55.032 36.8515 54.796 36.8515 54.492V53.94C36.8515 53.636 36.7635 53.404 36.5875 53.244C36.4115 53.084 36.1715 53.004 35.8675 53.004H33.8275V55.44ZM44.3989 60C44.0629 60 43.7949 59.904 43.5949 59.712C43.4029 59.512 43.2829 59.248 43.2349 58.92H43.1629C43.0589 59.328 42.8469 59.636 42.5269 59.844C42.2069 60.044 41.8109 60.144 41.3389 60.144C40.6989 60.144 40.2069 59.976 39.8629 59.64C39.5189 59.304 39.3469 58.856 39.3469 58.296C39.3469 57.648 39.5789 57.168 40.0429 56.856C40.5069 56.536 41.1669 56.376 42.0229 56.376H43.0909V55.92C43.0909 55.568 42.9989 55.296 42.8149 55.104C42.6309 54.912 42.3349 54.816 41.9269 54.816C41.5669 54.816 41.2749 54.896 41.0509 55.056C40.8349 55.208 40.6509 55.392 40.4989 55.608L39.5869 54.792C39.8189 54.432 40.1269 54.144 40.5109 53.928C40.8949 53.704 41.4029 53.592 42.0349 53.592C42.8829 53.592 43.5269 53.784 43.9669 54.168C44.4069 54.552 44.6269 55.104 44.6269 55.824V58.776H45.2509V60H44.3989ZM41.8549 59.028C42.1989 59.028 42.4909 58.952 42.7309 58.8C42.9709 58.648 43.0909 58.424 43.0909 58.128V57.3H42.1069C41.3069 57.3 40.9069 57.556 40.9069 58.068V58.272C40.9069 58.528 40.9869 58.72 41.1469 58.848C41.3149 58.968 41.5509 59.028 41.8549 59.028ZM48.666 60.144C48.066 60.144 47.562 60.044 47.154 59.844C46.746 59.636 46.386 59.352 46.074 58.992L47.01 58.08C47.242 58.344 47.494 58.552 47.766 58.704C48.046 58.856 48.366 58.932 48.726 58.932C49.094 58.932 49.358 58.868 49.518 58.74C49.686 58.612 49.77 58.436 49.77 58.212C49.77 58.028 49.71 57.884 49.59 57.78C49.478 57.668 49.282 57.592 49.002 57.552L48.378 57.468C47.698 57.38 47.178 57.188 46.818 56.892C46.466 56.588 46.29 56.148 46.29 55.572C46.29 55.268 46.346 54.996 46.458 54.756C46.57 54.508 46.73 54.3 46.938 54.132C47.146 53.956 47.394 53.824 47.682 53.736C47.978 53.64 48.306 53.592 48.666 53.592C48.97 53.592 49.238 53.616 49.47 53.664C49.71 53.704 49.926 53.768 50.118 53.856C50.31 53.936 50.486 54.04 50.646 54.168C50.806 54.288 50.962 54.424 51.114 54.576L50.214 55.476C50.03 55.284 49.81 55.124 49.554 54.996C49.298 54.868 49.018 54.804 48.714 54.804C48.378 54.804 48.134 54.864 47.982 54.984C47.838 55.104 47.766 55.26 47.766 55.452C47.766 55.66 47.826 55.82 47.946 55.932C48.074 56.036 48.286 56.112 48.582 56.16L49.218 56.244C50.57 56.436 51.246 57.052 51.246 58.092C51.246 58.396 51.182 58.676 51.054 58.932C50.934 59.18 50.762 59.396 50.538 59.58C50.314 59.756 50.042 59.896 49.722 60C49.41 60.096 49.058 60.144 48.666 60.144ZM54.6923 60.144C54.0923 60.144 53.5883 60.044 53.1803 59.844C52.7723 59.636 52.4123 59.352 52.1003 58.992L53.0363 58.08C53.2683 58.344 53.5203 58.552 53.7923 58.704C54.0723 58.856 54.3923 58.932 54.7523 58.932C55.1203 58.932 55.3843 58.868 55.5443 58.74C55.7123 58.612 55.7963 58.436 55.7963 58.212C55.7963 58.028 55.7363 57.884 55.6163 57.78C55.5043 57.668 55.3083 57.592 55.0283 57.552L54.4043 57.468C53.7243 57.38 53.2043 57.188 52.8443 56.892C52.4923 56.588 52.3163 56.148 52.3163 55.572C52.3163 55.268 52.3723 54.996 52.4843 54.756C52.5963 54.508 52.7563 54.3 52.9643 54.132C53.1723 53.956 53.4203 53.824 53.7083 53.736C54.0043 53.64 54.3323 53.592 54.6923 53.592C54.9963 53.592 55.2643 53.616 55.4963 53.664C55.7363 53.704 55.9523 53.768 56.1443 53.856C56.3363 53.936 56.5123 54.04 56.6723 54.168C56.8323 54.288 56.9883 54.424 57.1403 54.576L56.2403 55.476C56.0563 55.284 55.8363 55.124 55.5803 54.996C55.3243 54.868 55.0443 54.804 54.7403 54.804C54.4043 54.804 54.1603 54.864 54.0083 54.984C53.8643 55.104 53.7923 55.26 53.7923 55.452C53.7923 55.66 53.8523 55.82 53.9723 55.932C54.1003 56.036 54.3123 56.112 54.6083 56.16L55.2443 56.244C56.5963 56.436 57.2723 57.052 57.2723 58.092C57.2723 58.396 57.2083 58.676 57.0803 58.932C56.9603 59.18 56.7883 59.396 56.5643 59.58C56.3403 59.756 56.0683 59.896 55.7483 60C55.4363 60.096 55.0843 60.144 54.6923 60.144Z" fill="white"/>
<rect x="129" y="16" width="66" height="1" transform="rotate(90 129 16)" fill="white" fill-opacity="0.1"/>
<rect x="73" y="16" width="66" height="1" transform="rotate(90 73 16)" fill="white" fill-opacity="0.1"/>
<defs>
<linearGradient id="paint0_linear_317_998" x1="157" y1="37" x2="157" y2="42" gradientUnits="userSpaceOnUse">
<stop stop-color="white"/>
<stop offset="1" stop-color="#171717"/>
</linearGradient>
<linearGradient id="paint1_linear_317_998" x1="101" y1="37" x2="101" y2="42" gradientUnits="userSpaceOnUse">
<stop stop-color="white"/>
<stop offset="1" stop-color="#171717"/>
</linearGradient>
<linearGradient id="paint2_linear_317_998" x1="45" y1="37" x2="45" y2="42" gradientUnits="userSpaceOnUse">
<stop stop-color="white"/>
<stop offset="1" stop-color="#171717"/>
</linearGradient>
</defs>
</svg>
