<svg width="200" height="158" viewBox="0 0 200 158" fill="none" xmlns="http://www.w3.org/2000/svg">
<path d="M0 4C0 1.79086 1.79086 0 4 0H196C198.209 0 200 1.79086 200 4V154C200 156.209 198.209 158 196 158H4C1.79086 158 0 156.209 0 154V4Z" fill="#0D0D0D"/>
<path d="M141 67.8173C141 67.7491 140.994 67.6811 140.982 67.6141V29.612C140.981 29.3347 140.879 29.0675 140.696 28.8628C140.512 28.6581 140.26 28.5305 139.989 28.5051L112.978 26H112.963C112.939 26 112.915 26 112.89 26H112.852L112.779 26.0046H112.74H112.721L59.9328 33.8762C59.6738 33.9153 59.4372 34.0478 59.266 34.2495C59.0948 34.4513 59.0004 34.709 59 34.9756V71.8866C59 72.1819 59.1152 72.4651 59.3202 72.6739C59.5252 72.8827 59.8032 73 60.0931 73H139.89C140.18 73 140.458 72.8827 140.663 72.6739C140.868 72.4651 140.984 72.1819 140.984 71.8866V68.0195C140.995 67.9527 141.001 67.8851 141 67.8173ZM61.1816 40.5647L64.1676 40.1194V66.7057H61.1816V40.5647ZM66.3492 39.7947L69.3352 39.3493V66.7057H66.3492V39.7947ZM71.5168 39.0246L74.5027 38.5792V66.7057H71.5168V39.0246ZM76.6853 38.2545L79.6703 37.8101V66.7057H76.6853V38.2545ZM81.8529 37.4844L84.8379 37.04V66.7057H81.8529V37.4844ZM87.0204 36.7143L90.0055 36.2699V66.702H87.0204V36.7143ZM92.188 35.9443L95.174 35.4998V66.7057H92.188V35.9443ZM97.3556 35.1742L100.342 34.7298V66.7057H97.3583L97.3556 35.1742ZM102.523 34.405L105.509 33.9597V66.7057H102.523V34.405ZM107.691 33.6349L111.79 33.0244V66.7039H107.691V33.6349ZM111.79 28.3956V30.7782L61.1816 38.3185V35.9359L111.79 28.3956ZM61.1816 68.9278H111.787V70.7751H61.1816V68.9278ZM138.799 70.7751H113.97V28.3269L138.799 30.627V70.7751ZM135.585 62.6215C135.875 62.6215 136.153 62.5042 136.358 62.2954C136.563 62.0866 136.678 61.8034 136.678 61.5082C136.678 61.2129 136.563 60.9297 136.358 60.7209C136.153 60.5121 135.875 60.3948 135.585 60.3948H134.785V34.6444L135.469 34.7075C135.502 34.7109 135.536 34.7124 135.569 34.7121C135.844 34.7024 136.105 34.5875 136.3 34.3906C136.495 34.1936 136.611 33.9289 136.623 33.6492C136.635 33.3696 136.544 33.0954 136.366 32.8815C136.189 32.6675 135.939 32.5294 135.667 32.4947L133.806 32.3221L117.3 30.7931C117.153 30.7705 117.002 30.7788 116.858 30.8174C116.714 30.8561 116.58 30.9244 116.462 31.0181C116.345 31.1117 116.248 31.2288 116.177 31.3621C116.106 31.4954 116.062 31.6421 116.049 31.7932C116.035 31.9443 116.052 32.0966 116.098 32.2408C116.145 32.3849 116.22 32.5179 116.318 32.6316C116.417 32.7452 116.537 32.8371 116.672 32.9017C116.807 32.9662 116.953 33.002 117.102 33.0068L118.936 33.1766V60.3985H118.196C117.906 60.3985 117.628 60.5158 117.423 60.7246C117.218 60.9334 117.103 61.2166 117.103 61.5119C117.103 61.8072 117.218 62.0903 117.423 62.2991C117.628 62.5079 117.906 62.6252 118.196 62.6252H118.936V66.7076H117.201C117.051 66.6978 116.902 66.7192 116.761 66.7706C116.62 66.822 116.492 66.9022 116.383 67.0064C116.273 67.1105 116.187 67.2363 116.127 67.376C116.068 67.5158 116.037 67.6664 116.037 67.8186C116.037 67.9709 116.068 68.1216 116.127 68.2613C116.187 68.401 116.273 68.5268 116.383 68.6309C116.492 68.7351 116.62 68.8153 116.761 68.8667C116.902 68.9181 117.051 68.9395 117.201 68.9297H135.568C135.845 68.9115 136.105 68.7865 136.295 68.5801C136.485 68.3737 136.591 68.1015 136.591 67.8186C136.591 67.5358 136.485 67.2636 136.295 67.0572C136.105 66.8508 135.845 66.7258 135.568 66.7076H134.785V62.6252L135.585 62.6215ZM121.118 33.3789L125.77 33.8094V48.3852H125.285C124.802 48.3867 124.34 48.5827 123.998 48.9304C123.657 49.278 123.465 49.7492 123.463 50.2409V53.2841C123.465 53.7758 123.657 54.2469 123.998 54.5946C124.34 54.9422 124.802 55.1382 125.285 55.1397H125.77V60.3948H125.174C124.884 60.3948 124.606 60.5121 124.401 60.7209C124.196 60.9297 124.081 61.2129 124.081 61.5082C124.081 61.8034 124.196 62.0866 124.401 62.2954C124.606 62.5042 124.884 62.6215 125.174 62.6215H125.77V66.7039H121.118V33.3789ZM125.641 52.9213V50.612H128.08V52.925L125.641 52.9213ZM127.951 66.7057V62.6234H128.547C128.837 62.6234 129.115 62.5061 129.32 62.2973C129.525 62.0885 129.64 61.8053 129.64 61.51C129.64 61.2147 129.525 60.9315 129.32 60.7227C129.115 60.514 128.837 60.3966 128.547 60.3966H127.951V55.1434H128.436C128.919 55.1419 129.381 54.946 129.722 54.5983C130.064 54.2506 130.256 53.7795 130.258 53.2878V50.2455C130.256 49.7538 130.064 49.2827 129.722 48.935C129.381 48.5873 128.919 48.3913 128.436 48.3899H127.951V34.0116L132.603 34.4421V66.7057H127.951Z" fill="#727272"/>
</svg>
