<svg width="360" height="50" viewBox="0 0 360 50" fill="none" xmlns="http://www.w3.org/2000/svg">
<mask id="path-1-outside-1_452_320" maskUnits="userSpaceOnUse" x="67" y="1" width="226" height="49" fill="black">
<rect fill="white" x="67" y="1" width="226" height="49"/>
<path d="M70.1332 48L81.9092 3.2H96.6292L108.405 48H99.7012L97.2692 38.144H81.2692L78.8372 48H70.1332ZM83.2532 30.336H95.2852L89.8452 8.512H88.6932L83.2532 30.336ZM120.168 48V3.2H128.616V40.32H149.096V48H120.168ZM161.255 48V3.2H179.687C182.503 3.2 184.978 3.776 187.111 4.928C189.287 6.03733 190.973 7.616 192.167 9.664C193.405 11.712 194.023 14.144 194.023 16.96V17.856C194.023 20.6293 193.383 23.0613 192.103 25.152C190.866 27.2 189.159 28.8 186.983 29.952C184.85 31.0613 182.418 31.616 179.687 31.616H169.703V48H161.255ZM169.703 23.936H178.855C180.861 23.936 182.482 23.3813 183.719 22.272C184.957 21.1627 185.575 19.648 185.575 17.728V17.088C185.575 15.168 184.957 13.6533 183.719 12.544C182.482 11.4347 180.861 10.88 178.855 10.88H169.703V23.936ZM206.28 48V3.2H214.728V21.696H231.368V3.2H239.816V48H231.368V29.376H214.728V48H206.28ZM251.608 48L263.384 3.2H278.104L289.88 48H281.176L278.744 38.144H262.744L260.312 48H251.608ZM264.728 30.336H276.76L271.32 8.512H270.168L264.728 30.336Z"/>
</mask>
<path d="M70.1332 48L68.199 47.4916L67.5396 50H70.1332V48ZM81.9092 3.2V1.2H80.367L79.975 2.69155L81.9092 3.2ZM96.6292 3.2L98.5635 2.69155L98.1715 1.2H96.6292V3.2ZM108.405 48V50H110.999L110.34 47.4916L108.405 48ZM99.7012 48L97.7595 48.4791L98.1348 50H99.7012V48ZM97.2692 38.144L99.211 37.6649L98.8357 36.144H97.2692V38.144ZM81.2692 38.144V36.144H79.7028L79.3275 37.6649L81.2692 38.144ZM78.8372 48V50H80.4037L80.779 48.4791L78.8372 48ZM83.2533 30.336L81.3126 29.8523L80.6935 32.336H83.2533V30.336ZM95.2852 30.336V32.336H97.845L97.2259 29.8523L95.2852 30.336ZM89.8452 8.512L91.7859 8.02826L91.4079 6.512H89.8452V8.512ZM88.6933 8.512V6.512H87.1306L86.7526 8.02826L88.6933 8.512ZM72.0675 48.5084L83.8435 3.70844L79.975 2.69155L68.199 47.4916L72.0675 48.5084ZM81.9092 5.2H96.6292V1.2H81.9092V5.2ZM94.695 3.70844L106.471 48.5084L110.34 47.4916L98.5635 2.69155L94.695 3.70844ZM108.405 46H99.7012V50H108.405V46ZM101.643 47.5209L99.211 37.6649L95.3275 38.6231L97.7595 48.4791L101.643 47.5209ZM97.2692 36.144H81.2692V40.144H97.2692V36.144ZM79.3275 37.6649L76.8955 47.5209L80.779 48.4791L83.211 38.6231L79.3275 37.6649ZM78.8372 46H70.1332V50H78.8372V46ZM83.2533 32.336H95.2852V28.336H83.2533V32.336ZM97.2259 29.8523L91.7859 8.02826L87.9046 8.99573L93.3446 30.8197L97.2259 29.8523ZM89.8452 6.512H88.6933V10.512H89.8452V6.512ZM86.7526 8.02826L81.3126 29.8523L85.1939 30.8197L90.6339 8.99573L86.7526 8.02826ZM120.168 48H118.168V50H120.168V48ZM120.168 3.2V1.2H118.168V3.2H120.168ZM128.616 3.2H130.616V1.2H128.616V3.2ZM128.616 40.32H126.616V42.32H128.616V40.32ZM149.096 40.32H151.096V38.32H149.096V40.32ZM149.096 48V50H151.096V48H149.096ZM122.168 48V3.2H118.168V48H122.168ZM120.168 5.2H128.616V1.2H120.168V5.2ZM126.616 3.2V40.32H130.616V3.2H126.616ZM128.616 42.32H149.096V38.32H128.616V42.32ZM147.096 40.32V48H151.096V40.32H147.096ZM149.096 46H120.168V50H149.096V46ZM161.255 48H159.255V50H161.255V48ZM161.255 3.2V1.2H159.255V3.2H161.255ZM187.111 4.928L186.161 6.68781L186.182 6.69906L186.203 6.70981L187.111 4.928ZM192.167 9.664L190.44 10.6717L190.447 10.685L190.455 10.6982L192.167 9.664ZM192.103 25.152L190.398 24.1077L190.391 24.1178L192.103 25.152ZM186.983 29.952L187.906 31.7264L187.913 31.723L187.919 31.7196L186.983 29.952ZM169.703 31.616V29.616H167.703V31.616H169.703ZM169.703 48V50H171.703V48H169.703ZM169.703 23.936H167.703V25.936H169.703V23.936ZM183.719 22.272L185.054 23.7611V23.7611L183.719 22.272ZM183.719 12.544L185.054 11.0549V11.0549L183.719 12.544ZM169.703 10.88V8.88H167.703V10.88H169.703ZM163.255 48V3.2H159.255V48H163.255ZM161.255 5.2H179.687V1.2H161.255V5.2ZM179.687 5.2C182.225 5.2 184.364 5.71721 186.161 6.68781L188.062 3.16819C185.592 1.83479 182.781 1.2 179.687 1.2V5.2ZM186.203 6.70981C188.048 7.65053 189.444 8.96535 190.44 10.6717L193.895 8.65626C192.501 6.26665 190.526 4.42413 188.02 3.14619L186.203 6.70981ZM190.455 10.6982C191.473 12.3827 192.023 14.4434 192.023 16.96H196.023C196.023 13.8446 195.336 11.0413 193.879 8.62977L190.455 10.6982ZM192.023 16.96V17.856H196.023V16.96H192.023ZM192.023 17.856C192.023 20.3103 191.461 22.3711 190.398 24.1077L193.809 26.1963C195.306 23.7515 196.023 20.9483 196.023 17.856H192.023ZM190.391 24.1178C189.347 25.8462 187.913 27.1969 186.047 28.1844L187.919 31.7196C190.406 30.4031 192.385 28.5538 193.815 26.1862L190.391 24.1178ZM186.061 28.1776C184.249 29.1197 182.141 29.616 179.687 29.616V33.616C182.695 33.616 185.451 33.003 187.906 31.7264L186.061 28.1776ZM179.687 29.616H169.703V33.616H179.687V29.616ZM167.703 31.616V48H171.703V31.616H167.703ZM169.703 46H161.255V50H169.703V46ZM169.703 25.936H178.855V21.936H169.703V25.936ZM178.855 25.936C181.246 25.936 183.378 25.2645 185.054 23.7611L182.384 20.7829C181.586 21.4982 180.475 21.936 178.855 21.936V25.936ZM185.054 23.7611C186.782 22.212 187.575 20.119 187.575 17.728H183.575C183.575 19.177 183.131 20.1133 182.384 20.7829L185.054 23.7611ZM187.575 17.728V17.088H183.575V17.728H187.575ZM187.575 17.088C187.575 14.697 186.782 12.604 185.054 11.0549L182.384 14.0331C183.131 14.7026 183.575 15.639 183.575 17.088H187.575ZM185.054 11.0549C183.378 9.5515 181.246 8.88 178.855 8.88V12.88C180.475 12.88 181.586 13.3178 182.384 14.0331L185.054 11.0549ZM178.855 8.88H169.703V12.88H178.855V8.88ZM167.703 10.88V23.936H171.703V10.88H167.703ZM206.28 48H204.28V50H206.28V48ZM206.28 3.2V1.2H204.28V3.2H206.28ZM214.728 3.2H216.728V1.2H214.728V3.2ZM214.728 21.696H212.728V23.696H214.728V21.696ZM231.368 21.696V23.696H233.368V21.696H231.368ZM231.368 3.2V1.2H229.368V3.2H231.368ZM239.816 3.2H241.816V1.2H239.816V3.2ZM239.816 48V50H241.816V48H239.816ZM231.368 48H229.368V50H231.368V48ZM231.368 29.376H233.368V27.376H231.368V29.376ZM214.728 29.376V27.376H212.728V29.376H214.728ZM214.728 48V50H216.728V48H214.728ZM208.28 48V3.2H204.28V48H208.28ZM206.28 5.2H214.728V1.2H206.28V5.2ZM212.728 3.2V21.696H216.728V3.2H212.728ZM214.728 23.696H231.368V19.696H214.728V23.696ZM233.368 21.696V3.2H229.368V21.696H233.368ZM231.368 5.2H239.816V1.2H231.368V5.2ZM237.816 3.2V48H241.816V3.2H237.816ZM239.816 46H231.368V50H239.816V46ZM233.368 48V29.376H229.368V48H233.368ZM231.368 27.376H214.728V31.376H231.368V27.376ZM212.728 29.376V48H216.728V29.376H212.728ZM214.728 46H206.28V50H214.728V46ZM251.608 48L249.674 47.4916L249.015 50H251.608V48ZM263.384 3.2V1.2H261.842L261.45 2.69155L263.384 3.2ZM278.104 3.2L280.039 2.69155L279.646 1.2H278.104V3.2ZM289.88 48V50H292.474L291.815 47.4916L289.88 48ZM281.176 48L279.234 48.4791L279.61 50H281.176V48ZM278.744 38.144L280.686 37.6649L280.311 36.144H278.744V38.144ZM262.744 38.144V36.144H261.178L260.802 37.6649L262.744 38.144ZM260.312 48V50H261.879L262.254 48.4791L260.312 48ZM264.728 30.336L262.788 29.8523L262.169 32.336H264.728V30.336ZM276.76 30.336V32.336H279.32L278.701 29.8523L276.76 30.336ZM271.32 8.512L273.261 8.02826L272.883 6.512H271.32V8.512ZM270.168 8.512V6.512H268.606L268.228 8.02826L270.168 8.512ZM253.543 48.5084L265.319 3.70844L261.45 2.69155L249.674 47.4916L253.543 48.5084ZM263.384 5.2H278.104V1.2H263.384V5.2ZM276.17 3.70844L287.946 48.5084L291.815 47.4916L280.039 2.69155L276.17 3.70844ZM289.88 46H281.176V50H289.88V46ZM283.118 47.5209L280.686 37.6649L276.802 38.6231L279.234 48.4791L283.118 47.5209ZM278.744 36.144H262.744V40.144H278.744V36.144ZM260.802 37.6649L258.37 47.5209L262.254 48.4791L264.686 38.6231L260.802 37.6649ZM260.312 46H251.608V50H260.312V46ZM264.728 32.336H276.76V28.336H264.728V32.336ZM278.701 29.8523L273.261 8.02826L269.38 8.99573L274.82 30.8197L278.701 29.8523ZM271.32 6.512H270.168V10.512H271.32V6.512ZM268.228 8.02826L262.788 29.8523L266.669 30.8197L272.109 8.99573L268.228 8.02826Z" fill="white" mask="url(#path-1-outside-1_452_320)"/>
<line x1="50" y1="49.5" x2="310" y2="49.5" stroke="white" stroke-opacity="0.2"/>
<line x1="50" y1="0.5" x2="310" y2="0.500021" stroke="white" stroke-opacity="0.2"/>
<line x1="67.5" y1="49" x2="67.5" y2="1" stroke="white" stroke-opacity="0.2"/>
<line x1="292.5" y1="49" x2="292.5" y2="1" stroke="white" stroke-opacity="0.2"/>
</svg>
