<svg width="166" height="57" viewBox="0 0 166 57" fill="none" xmlns="http://www.w3.org/2000/svg">
<rect x="119" y="20" width="5.5" height="26.9999" fill="white"/>
<path fill-rule="evenodd" clip-rule="evenodd" d="M135.5 20H130V46.9999H135.5V25.4H146.5V46.9999H152V25.4C152 22.4177 149.582 20 146.6 20H146.5H135.5Z" fill="white"/>
<path fill-rule="evenodd" clip-rule="evenodd" d="M91.5 20H97H108H108.1C111.082 20 113.5 22.4177 113.5 25.4V41.5999V41.6C113.5 44.5823 111.082 46.9999 108.1 46.9999H108H97V46.9999H91.5V20ZM97 41.5999H108V25.4H97V41.5999Z" fill="white"/>
<path fill-rule="evenodd" clip-rule="evenodd" d="M47.5 20H42V46.9999H47.5H58.5V41.6H47.5V20Z" fill="white"/>
<path fill-rule="evenodd" clip-rule="evenodd" d="M25.5 20H20V46.9999H25.5H36.5V41.6H25.5V36.2H36.5V30.8H25.5V25.4H36.5V20H25.5Z" fill="white"/>
<path d="M75 20H80.5C83.5376 20 86 22.4177 86 25.4V41.6C86 44.5823 83.5376 47 80.5 47H69.5C66.4624 47 64 44.5823 64 41.5999V25.4C64 22.4177 66.4624 20 69.5 20V25.4V41.6H80.5V25.4L69.5 25.4C69.5 22.4177 71.9624 20 75 20Z" fill="white"/>
<line x1="19.5" y1="48" x2="19.5" y2="-2.18557e-08" stroke="white" stroke-opacity="0.2"/>
<line x1="151.5" y1="57" x2="151.5" y2="9" stroke="white" stroke-opacity="0.2"/>
<line x1="4.37114e-08" y1="19.5" x2="166" y2="19.5" stroke="white" stroke-opacity="0.2"/>
<line x1="4.37114e-08" y1="47.5" x2="166" y2="47.5" stroke="white" stroke-opacity="0.2"/>
</svg>
